G75*
%MOIN*%
%OFA0B0*%
%FSLAX25Y25*%
%IPPOS*%
%LPD*%
%AMOC8*
5,1,8,0,0,1.08239X$1,22.5*
%
%ADD10C,0.00000*%
%ADD11C,0.00500*%
%ADD12C,0.00200*%
D10*
X0023458Y0024622D02*
X0023458Y0189976D01*
X0023463Y0190357D01*
X0023476Y0190737D01*
X0023499Y0191117D01*
X0023532Y0191496D01*
X0023573Y0191874D01*
X0023623Y0192251D01*
X0023683Y0192627D01*
X0023751Y0193002D01*
X0023829Y0193374D01*
X0023916Y0193745D01*
X0024011Y0194113D01*
X0024116Y0194479D01*
X0024229Y0194842D01*
X0024351Y0195203D01*
X0024481Y0195560D01*
X0024621Y0195914D01*
X0024768Y0196265D01*
X0024925Y0196612D01*
X0025089Y0196955D01*
X0025262Y0197294D01*
X0025443Y0197629D01*
X0025632Y0197960D01*
X0025829Y0198285D01*
X0026033Y0198606D01*
X0026246Y0198922D01*
X0026466Y0199232D01*
X0026693Y0199538D01*
X0026928Y0199837D01*
X0027170Y0200131D01*
X0027418Y0200419D01*
X0027674Y0200701D01*
X0027937Y0200976D01*
X0028206Y0201245D01*
X0028481Y0201508D01*
X0028763Y0201764D01*
X0029051Y0202012D01*
X0029345Y0202254D01*
X0029644Y0202489D01*
X0029950Y0202716D01*
X0030260Y0202936D01*
X0030576Y0203149D01*
X0030897Y0203353D01*
X0031222Y0203550D01*
X0031553Y0203739D01*
X0031888Y0203920D01*
X0032227Y0204093D01*
X0032570Y0204257D01*
X0032917Y0204414D01*
X0033268Y0204561D01*
X0033622Y0204701D01*
X0033979Y0204831D01*
X0034340Y0204953D01*
X0034703Y0205066D01*
X0035069Y0205171D01*
X0035437Y0205266D01*
X0035808Y0205353D01*
X0036180Y0205431D01*
X0036555Y0205499D01*
X0036931Y0205559D01*
X0037308Y0205609D01*
X0037686Y0205650D01*
X0038065Y0205683D01*
X0038445Y0205706D01*
X0038825Y0205719D01*
X0039206Y0205724D01*
X0302985Y0205724D01*
X0303366Y0205719D01*
X0303746Y0205706D01*
X0304126Y0205683D01*
X0304505Y0205650D01*
X0304883Y0205609D01*
X0305260Y0205559D01*
X0305636Y0205499D01*
X0306011Y0205431D01*
X0306383Y0205353D01*
X0306754Y0205266D01*
X0307122Y0205171D01*
X0307488Y0205066D01*
X0307851Y0204953D01*
X0308212Y0204831D01*
X0308569Y0204701D01*
X0308923Y0204561D01*
X0309274Y0204414D01*
X0309621Y0204257D01*
X0309964Y0204093D01*
X0310303Y0203920D01*
X0310638Y0203739D01*
X0310969Y0203550D01*
X0311294Y0203353D01*
X0311615Y0203149D01*
X0311931Y0202936D01*
X0312241Y0202716D01*
X0312547Y0202489D01*
X0312846Y0202254D01*
X0313140Y0202012D01*
X0313428Y0201764D01*
X0313710Y0201508D01*
X0313985Y0201245D01*
X0314254Y0200976D01*
X0314517Y0200701D01*
X0314773Y0200419D01*
X0315021Y0200131D01*
X0315263Y0199837D01*
X0315498Y0199538D01*
X0315725Y0199232D01*
X0315945Y0198922D01*
X0316158Y0198606D01*
X0316362Y0198285D01*
X0316559Y0197960D01*
X0316748Y0197629D01*
X0316929Y0197294D01*
X0317102Y0196955D01*
X0317266Y0196612D01*
X0317423Y0196265D01*
X0317570Y0195914D01*
X0317710Y0195560D01*
X0317840Y0195203D01*
X0317962Y0194842D01*
X0318075Y0194479D01*
X0318180Y0194113D01*
X0318275Y0193745D01*
X0318362Y0193374D01*
X0318440Y0193002D01*
X0318508Y0192627D01*
X0318568Y0192251D01*
X0318618Y0191874D01*
X0318659Y0191496D01*
X0318692Y0191117D01*
X0318715Y0190737D01*
X0318728Y0190357D01*
X0318733Y0189976D01*
X0318733Y0024622D01*
X0318728Y0024241D01*
X0318715Y0023861D01*
X0318692Y0023481D01*
X0318659Y0023102D01*
X0318618Y0022724D01*
X0318568Y0022347D01*
X0318508Y0021971D01*
X0318440Y0021596D01*
X0318362Y0021224D01*
X0318275Y0020853D01*
X0318180Y0020485D01*
X0318075Y0020119D01*
X0317962Y0019756D01*
X0317840Y0019395D01*
X0317710Y0019038D01*
X0317570Y0018684D01*
X0317423Y0018333D01*
X0317266Y0017986D01*
X0317102Y0017643D01*
X0316929Y0017304D01*
X0316748Y0016969D01*
X0316559Y0016638D01*
X0316362Y0016313D01*
X0316158Y0015992D01*
X0315945Y0015676D01*
X0315725Y0015366D01*
X0315498Y0015060D01*
X0315263Y0014761D01*
X0315021Y0014467D01*
X0314773Y0014179D01*
X0314517Y0013897D01*
X0314254Y0013622D01*
X0313985Y0013353D01*
X0313710Y0013090D01*
X0313428Y0012834D01*
X0313140Y0012586D01*
X0312846Y0012344D01*
X0312547Y0012109D01*
X0312241Y0011882D01*
X0311931Y0011662D01*
X0311615Y0011449D01*
X0311294Y0011245D01*
X0310969Y0011048D01*
X0310638Y0010859D01*
X0310303Y0010678D01*
X0309964Y0010505D01*
X0309621Y0010341D01*
X0309274Y0010184D01*
X0308923Y0010037D01*
X0308569Y0009897D01*
X0308212Y0009767D01*
X0307851Y0009645D01*
X0307488Y0009532D01*
X0307122Y0009427D01*
X0306754Y0009332D01*
X0306383Y0009245D01*
X0306011Y0009167D01*
X0305636Y0009099D01*
X0305260Y0009039D01*
X0304883Y0008989D01*
X0304505Y0008948D01*
X0304126Y0008915D01*
X0303746Y0008892D01*
X0303366Y0008879D01*
X0302985Y0008874D01*
X0039206Y0008874D01*
X0038825Y0008879D01*
X0038445Y0008892D01*
X0038065Y0008915D01*
X0037686Y0008948D01*
X0037308Y0008989D01*
X0036931Y0009039D01*
X0036555Y0009099D01*
X0036180Y0009167D01*
X0035808Y0009245D01*
X0035437Y0009332D01*
X0035069Y0009427D01*
X0034703Y0009532D01*
X0034340Y0009645D01*
X0033979Y0009767D01*
X0033622Y0009897D01*
X0033268Y0010037D01*
X0032917Y0010184D01*
X0032570Y0010341D01*
X0032227Y0010505D01*
X0031888Y0010678D01*
X0031553Y0010859D01*
X0031222Y0011048D01*
X0030897Y0011245D01*
X0030576Y0011449D01*
X0030260Y0011662D01*
X0029950Y0011882D01*
X0029644Y0012109D01*
X0029345Y0012344D01*
X0029051Y0012586D01*
X0028763Y0012834D01*
X0028481Y0013090D01*
X0028206Y0013353D01*
X0027937Y0013622D01*
X0027674Y0013897D01*
X0027418Y0014179D01*
X0027170Y0014467D01*
X0026928Y0014761D01*
X0026693Y0015060D01*
X0026466Y0015366D01*
X0026246Y0015676D01*
X0026033Y0015992D01*
X0025829Y0016313D01*
X0025632Y0016638D01*
X0025443Y0016969D01*
X0025262Y0017304D01*
X0025089Y0017643D01*
X0024925Y0017986D01*
X0024768Y0018333D01*
X0024621Y0018684D01*
X0024481Y0019038D01*
X0024351Y0019395D01*
X0024229Y0019756D01*
X0024116Y0020119D01*
X0024011Y0020485D01*
X0023916Y0020853D01*
X0023829Y0021224D01*
X0023751Y0021596D01*
X0023683Y0021971D01*
X0023623Y0022347D01*
X0023573Y0022724D01*
X0023532Y0023102D01*
X0023499Y0023481D01*
X0023476Y0023861D01*
X0023463Y0024241D01*
X0023458Y0024622D01*
X0249442Y0168323D02*
X0249444Y0168420D01*
X0249450Y0168517D01*
X0249460Y0168613D01*
X0249474Y0168709D01*
X0249492Y0168805D01*
X0249513Y0168899D01*
X0249539Y0168993D01*
X0249568Y0169085D01*
X0249602Y0169176D01*
X0249638Y0169266D01*
X0249679Y0169354D01*
X0249723Y0169440D01*
X0249771Y0169525D01*
X0249822Y0169607D01*
X0249876Y0169688D01*
X0249934Y0169766D01*
X0249995Y0169841D01*
X0250058Y0169914D01*
X0250125Y0169985D01*
X0250195Y0170052D01*
X0250267Y0170117D01*
X0250342Y0170178D01*
X0250420Y0170237D01*
X0250499Y0170292D01*
X0250581Y0170344D01*
X0250665Y0170392D01*
X0250751Y0170437D01*
X0250839Y0170479D01*
X0250928Y0170517D01*
X0251019Y0170551D01*
X0251111Y0170581D01*
X0251204Y0170608D01*
X0251299Y0170630D01*
X0251394Y0170649D01*
X0251490Y0170664D01*
X0251586Y0170675D01*
X0251683Y0170682D01*
X0251780Y0170685D01*
X0251877Y0170684D01*
X0251974Y0170679D01*
X0252070Y0170670D01*
X0252166Y0170657D01*
X0252262Y0170640D01*
X0252357Y0170619D01*
X0252450Y0170595D01*
X0252543Y0170566D01*
X0252635Y0170534D01*
X0252725Y0170498D01*
X0252813Y0170459D01*
X0252900Y0170415D01*
X0252985Y0170369D01*
X0253068Y0170318D01*
X0253149Y0170265D01*
X0253227Y0170208D01*
X0253304Y0170148D01*
X0253377Y0170085D01*
X0253448Y0170019D01*
X0253516Y0169950D01*
X0253582Y0169878D01*
X0253644Y0169804D01*
X0253703Y0169727D01*
X0253759Y0169648D01*
X0253812Y0169566D01*
X0253862Y0169483D01*
X0253907Y0169397D01*
X0253950Y0169310D01*
X0253989Y0169221D01*
X0254024Y0169131D01*
X0254055Y0169039D01*
X0254082Y0168946D01*
X0254106Y0168852D01*
X0254126Y0168757D01*
X0254142Y0168661D01*
X0254154Y0168565D01*
X0254162Y0168468D01*
X0254166Y0168371D01*
X0254166Y0168275D01*
X0254162Y0168178D01*
X0254154Y0168081D01*
X0254142Y0167985D01*
X0254126Y0167889D01*
X0254106Y0167794D01*
X0254082Y0167700D01*
X0254055Y0167607D01*
X0254024Y0167515D01*
X0253989Y0167425D01*
X0253950Y0167336D01*
X0253907Y0167249D01*
X0253862Y0167163D01*
X0253812Y0167080D01*
X0253759Y0166998D01*
X0253703Y0166919D01*
X0253644Y0166842D01*
X0253582Y0166768D01*
X0253516Y0166696D01*
X0253448Y0166627D01*
X0253377Y0166561D01*
X0253304Y0166498D01*
X0253227Y0166438D01*
X0253149Y0166381D01*
X0253068Y0166328D01*
X0252985Y0166277D01*
X0252900Y0166231D01*
X0252813Y0166187D01*
X0252725Y0166148D01*
X0252635Y0166112D01*
X0252543Y0166080D01*
X0252450Y0166051D01*
X0252357Y0166027D01*
X0252262Y0166006D01*
X0252166Y0165989D01*
X0252070Y0165976D01*
X0251974Y0165967D01*
X0251877Y0165962D01*
X0251780Y0165961D01*
X0251683Y0165964D01*
X0251586Y0165971D01*
X0251490Y0165982D01*
X0251394Y0165997D01*
X0251299Y0166016D01*
X0251204Y0166038D01*
X0251111Y0166065D01*
X0251019Y0166095D01*
X0250928Y0166129D01*
X0250839Y0166167D01*
X0250751Y0166209D01*
X0250665Y0166254D01*
X0250581Y0166302D01*
X0250499Y0166354D01*
X0250420Y0166409D01*
X0250342Y0166468D01*
X0250267Y0166529D01*
X0250195Y0166594D01*
X0250125Y0166661D01*
X0250058Y0166732D01*
X0249995Y0166805D01*
X0249934Y0166880D01*
X0249876Y0166958D01*
X0249822Y0167039D01*
X0249771Y0167121D01*
X0249723Y0167206D01*
X0249679Y0167292D01*
X0249638Y0167380D01*
X0249602Y0167470D01*
X0249568Y0167561D01*
X0249539Y0167653D01*
X0249513Y0167747D01*
X0249492Y0167841D01*
X0249474Y0167937D01*
X0249460Y0168033D01*
X0249450Y0168129D01*
X0249444Y0168226D01*
X0249442Y0168323D01*
X0229757Y0188008D02*
X0229759Y0188105D01*
X0229765Y0188202D01*
X0229775Y0188298D01*
X0229789Y0188394D01*
X0229807Y0188490D01*
X0229828Y0188584D01*
X0229854Y0188678D01*
X0229883Y0188770D01*
X0229917Y0188861D01*
X0229953Y0188951D01*
X0229994Y0189039D01*
X0230038Y0189125D01*
X0230086Y0189210D01*
X0230137Y0189292D01*
X0230191Y0189373D01*
X0230249Y0189451D01*
X0230310Y0189526D01*
X0230373Y0189599D01*
X0230440Y0189670D01*
X0230510Y0189737D01*
X0230582Y0189802D01*
X0230657Y0189863D01*
X0230735Y0189922D01*
X0230814Y0189977D01*
X0230896Y0190029D01*
X0230980Y0190077D01*
X0231066Y0190122D01*
X0231154Y0190164D01*
X0231243Y0190202D01*
X0231334Y0190236D01*
X0231426Y0190266D01*
X0231519Y0190293D01*
X0231614Y0190315D01*
X0231709Y0190334D01*
X0231805Y0190349D01*
X0231901Y0190360D01*
X0231998Y0190367D01*
X0232095Y0190370D01*
X0232192Y0190369D01*
X0232289Y0190364D01*
X0232385Y0190355D01*
X0232481Y0190342D01*
X0232577Y0190325D01*
X0232672Y0190304D01*
X0232765Y0190280D01*
X0232858Y0190251D01*
X0232950Y0190219D01*
X0233040Y0190183D01*
X0233128Y0190144D01*
X0233215Y0190100D01*
X0233300Y0190054D01*
X0233383Y0190003D01*
X0233464Y0189950D01*
X0233542Y0189893D01*
X0233619Y0189833D01*
X0233692Y0189770D01*
X0233763Y0189704D01*
X0233831Y0189635D01*
X0233897Y0189563D01*
X0233959Y0189489D01*
X0234018Y0189412D01*
X0234074Y0189333D01*
X0234127Y0189251D01*
X0234177Y0189168D01*
X0234222Y0189082D01*
X0234265Y0188995D01*
X0234304Y0188906D01*
X0234339Y0188816D01*
X0234370Y0188724D01*
X0234397Y0188631D01*
X0234421Y0188537D01*
X0234441Y0188442D01*
X0234457Y0188346D01*
X0234469Y0188250D01*
X0234477Y0188153D01*
X0234481Y0188056D01*
X0234481Y0187960D01*
X0234477Y0187863D01*
X0234469Y0187766D01*
X0234457Y0187670D01*
X0234441Y0187574D01*
X0234421Y0187479D01*
X0234397Y0187385D01*
X0234370Y0187292D01*
X0234339Y0187200D01*
X0234304Y0187110D01*
X0234265Y0187021D01*
X0234222Y0186934D01*
X0234177Y0186848D01*
X0234127Y0186765D01*
X0234074Y0186683D01*
X0234018Y0186604D01*
X0233959Y0186527D01*
X0233897Y0186453D01*
X0233831Y0186381D01*
X0233763Y0186312D01*
X0233692Y0186246D01*
X0233619Y0186183D01*
X0233542Y0186123D01*
X0233464Y0186066D01*
X0233383Y0186013D01*
X0233300Y0185962D01*
X0233215Y0185916D01*
X0233128Y0185872D01*
X0233040Y0185833D01*
X0232950Y0185797D01*
X0232858Y0185765D01*
X0232765Y0185736D01*
X0232672Y0185712D01*
X0232577Y0185691D01*
X0232481Y0185674D01*
X0232385Y0185661D01*
X0232289Y0185652D01*
X0232192Y0185647D01*
X0232095Y0185646D01*
X0231998Y0185649D01*
X0231901Y0185656D01*
X0231805Y0185667D01*
X0231709Y0185682D01*
X0231614Y0185701D01*
X0231519Y0185723D01*
X0231426Y0185750D01*
X0231334Y0185780D01*
X0231243Y0185814D01*
X0231154Y0185852D01*
X0231066Y0185894D01*
X0230980Y0185939D01*
X0230896Y0185987D01*
X0230814Y0186039D01*
X0230735Y0186094D01*
X0230657Y0186153D01*
X0230582Y0186214D01*
X0230510Y0186279D01*
X0230440Y0186346D01*
X0230373Y0186417D01*
X0230310Y0186490D01*
X0230249Y0186565D01*
X0230191Y0186643D01*
X0230137Y0186724D01*
X0230086Y0186806D01*
X0230038Y0186891D01*
X0229994Y0186977D01*
X0229953Y0187065D01*
X0229917Y0187155D01*
X0229883Y0187246D01*
X0229854Y0187338D01*
X0229828Y0187432D01*
X0229807Y0187526D01*
X0229789Y0187622D01*
X0229775Y0187718D01*
X0229765Y0187814D01*
X0229759Y0187911D01*
X0229757Y0188008D01*
X0229757Y0197850D02*
X0229759Y0197947D01*
X0229765Y0198044D01*
X0229775Y0198140D01*
X0229789Y0198236D01*
X0229807Y0198332D01*
X0229828Y0198426D01*
X0229854Y0198520D01*
X0229883Y0198612D01*
X0229917Y0198703D01*
X0229953Y0198793D01*
X0229994Y0198881D01*
X0230038Y0198967D01*
X0230086Y0199052D01*
X0230137Y0199134D01*
X0230191Y0199215D01*
X0230249Y0199293D01*
X0230310Y0199368D01*
X0230373Y0199441D01*
X0230440Y0199512D01*
X0230510Y0199579D01*
X0230582Y0199644D01*
X0230657Y0199705D01*
X0230735Y0199764D01*
X0230814Y0199819D01*
X0230896Y0199871D01*
X0230980Y0199919D01*
X0231066Y0199964D01*
X0231154Y0200006D01*
X0231243Y0200044D01*
X0231334Y0200078D01*
X0231426Y0200108D01*
X0231519Y0200135D01*
X0231614Y0200157D01*
X0231709Y0200176D01*
X0231805Y0200191D01*
X0231901Y0200202D01*
X0231998Y0200209D01*
X0232095Y0200212D01*
X0232192Y0200211D01*
X0232289Y0200206D01*
X0232385Y0200197D01*
X0232481Y0200184D01*
X0232577Y0200167D01*
X0232672Y0200146D01*
X0232765Y0200122D01*
X0232858Y0200093D01*
X0232950Y0200061D01*
X0233040Y0200025D01*
X0233128Y0199986D01*
X0233215Y0199942D01*
X0233300Y0199896D01*
X0233383Y0199845D01*
X0233464Y0199792D01*
X0233542Y0199735D01*
X0233619Y0199675D01*
X0233692Y0199612D01*
X0233763Y0199546D01*
X0233831Y0199477D01*
X0233897Y0199405D01*
X0233959Y0199331D01*
X0234018Y0199254D01*
X0234074Y0199175D01*
X0234127Y0199093D01*
X0234177Y0199010D01*
X0234222Y0198924D01*
X0234265Y0198837D01*
X0234304Y0198748D01*
X0234339Y0198658D01*
X0234370Y0198566D01*
X0234397Y0198473D01*
X0234421Y0198379D01*
X0234441Y0198284D01*
X0234457Y0198188D01*
X0234469Y0198092D01*
X0234477Y0197995D01*
X0234481Y0197898D01*
X0234481Y0197802D01*
X0234477Y0197705D01*
X0234469Y0197608D01*
X0234457Y0197512D01*
X0234441Y0197416D01*
X0234421Y0197321D01*
X0234397Y0197227D01*
X0234370Y0197134D01*
X0234339Y0197042D01*
X0234304Y0196952D01*
X0234265Y0196863D01*
X0234222Y0196776D01*
X0234177Y0196690D01*
X0234127Y0196607D01*
X0234074Y0196525D01*
X0234018Y0196446D01*
X0233959Y0196369D01*
X0233897Y0196295D01*
X0233831Y0196223D01*
X0233763Y0196154D01*
X0233692Y0196088D01*
X0233619Y0196025D01*
X0233542Y0195965D01*
X0233464Y0195908D01*
X0233383Y0195855D01*
X0233300Y0195804D01*
X0233215Y0195758D01*
X0233128Y0195714D01*
X0233040Y0195675D01*
X0232950Y0195639D01*
X0232858Y0195607D01*
X0232765Y0195578D01*
X0232672Y0195554D01*
X0232577Y0195533D01*
X0232481Y0195516D01*
X0232385Y0195503D01*
X0232289Y0195494D01*
X0232192Y0195489D01*
X0232095Y0195488D01*
X0231998Y0195491D01*
X0231901Y0195498D01*
X0231805Y0195509D01*
X0231709Y0195524D01*
X0231614Y0195543D01*
X0231519Y0195565D01*
X0231426Y0195592D01*
X0231334Y0195622D01*
X0231243Y0195656D01*
X0231154Y0195694D01*
X0231066Y0195736D01*
X0230980Y0195781D01*
X0230896Y0195829D01*
X0230814Y0195881D01*
X0230735Y0195936D01*
X0230657Y0195995D01*
X0230582Y0196056D01*
X0230510Y0196121D01*
X0230440Y0196188D01*
X0230373Y0196259D01*
X0230310Y0196332D01*
X0230249Y0196407D01*
X0230191Y0196485D01*
X0230137Y0196566D01*
X0230086Y0196648D01*
X0230038Y0196733D01*
X0229994Y0196819D01*
X0229953Y0196907D01*
X0229917Y0196997D01*
X0229883Y0197088D01*
X0229854Y0197180D01*
X0229828Y0197274D01*
X0229807Y0197368D01*
X0229789Y0197464D01*
X0229775Y0197560D01*
X0229765Y0197656D01*
X0229759Y0197753D01*
X0229757Y0197850D01*
X0269127Y0197850D02*
X0269129Y0197947D01*
X0269135Y0198044D01*
X0269145Y0198140D01*
X0269159Y0198236D01*
X0269177Y0198332D01*
X0269198Y0198426D01*
X0269224Y0198520D01*
X0269253Y0198612D01*
X0269287Y0198703D01*
X0269323Y0198793D01*
X0269364Y0198881D01*
X0269408Y0198967D01*
X0269456Y0199052D01*
X0269507Y0199134D01*
X0269561Y0199215D01*
X0269619Y0199293D01*
X0269680Y0199368D01*
X0269743Y0199441D01*
X0269810Y0199512D01*
X0269880Y0199579D01*
X0269952Y0199644D01*
X0270027Y0199705D01*
X0270105Y0199764D01*
X0270184Y0199819D01*
X0270266Y0199871D01*
X0270350Y0199919D01*
X0270436Y0199964D01*
X0270524Y0200006D01*
X0270613Y0200044D01*
X0270704Y0200078D01*
X0270796Y0200108D01*
X0270889Y0200135D01*
X0270984Y0200157D01*
X0271079Y0200176D01*
X0271175Y0200191D01*
X0271271Y0200202D01*
X0271368Y0200209D01*
X0271465Y0200212D01*
X0271562Y0200211D01*
X0271659Y0200206D01*
X0271755Y0200197D01*
X0271851Y0200184D01*
X0271947Y0200167D01*
X0272042Y0200146D01*
X0272135Y0200122D01*
X0272228Y0200093D01*
X0272320Y0200061D01*
X0272410Y0200025D01*
X0272498Y0199986D01*
X0272585Y0199942D01*
X0272670Y0199896D01*
X0272753Y0199845D01*
X0272834Y0199792D01*
X0272912Y0199735D01*
X0272989Y0199675D01*
X0273062Y0199612D01*
X0273133Y0199546D01*
X0273201Y0199477D01*
X0273267Y0199405D01*
X0273329Y0199331D01*
X0273388Y0199254D01*
X0273444Y0199175D01*
X0273497Y0199093D01*
X0273547Y0199010D01*
X0273592Y0198924D01*
X0273635Y0198837D01*
X0273674Y0198748D01*
X0273709Y0198658D01*
X0273740Y0198566D01*
X0273767Y0198473D01*
X0273791Y0198379D01*
X0273811Y0198284D01*
X0273827Y0198188D01*
X0273839Y0198092D01*
X0273847Y0197995D01*
X0273851Y0197898D01*
X0273851Y0197802D01*
X0273847Y0197705D01*
X0273839Y0197608D01*
X0273827Y0197512D01*
X0273811Y0197416D01*
X0273791Y0197321D01*
X0273767Y0197227D01*
X0273740Y0197134D01*
X0273709Y0197042D01*
X0273674Y0196952D01*
X0273635Y0196863D01*
X0273592Y0196776D01*
X0273547Y0196690D01*
X0273497Y0196607D01*
X0273444Y0196525D01*
X0273388Y0196446D01*
X0273329Y0196369D01*
X0273267Y0196295D01*
X0273201Y0196223D01*
X0273133Y0196154D01*
X0273062Y0196088D01*
X0272989Y0196025D01*
X0272912Y0195965D01*
X0272834Y0195908D01*
X0272753Y0195855D01*
X0272670Y0195804D01*
X0272585Y0195758D01*
X0272498Y0195714D01*
X0272410Y0195675D01*
X0272320Y0195639D01*
X0272228Y0195607D01*
X0272135Y0195578D01*
X0272042Y0195554D01*
X0271947Y0195533D01*
X0271851Y0195516D01*
X0271755Y0195503D01*
X0271659Y0195494D01*
X0271562Y0195489D01*
X0271465Y0195488D01*
X0271368Y0195491D01*
X0271271Y0195498D01*
X0271175Y0195509D01*
X0271079Y0195524D01*
X0270984Y0195543D01*
X0270889Y0195565D01*
X0270796Y0195592D01*
X0270704Y0195622D01*
X0270613Y0195656D01*
X0270524Y0195694D01*
X0270436Y0195736D01*
X0270350Y0195781D01*
X0270266Y0195829D01*
X0270184Y0195881D01*
X0270105Y0195936D01*
X0270027Y0195995D01*
X0269952Y0196056D01*
X0269880Y0196121D01*
X0269810Y0196188D01*
X0269743Y0196259D01*
X0269680Y0196332D01*
X0269619Y0196407D01*
X0269561Y0196485D01*
X0269507Y0196566D01*
X0269456Y0196648D01*
X0269408Y0196733D01*
X0269364Y0196819D01*
X0269323Y0196907D01*
X0269287Y0196997D01*
X0269253Y0197088D01*
X0269224Y0197180D01*
X0269198Y0197274D01*
X0269177Y0197368D01*
X0269159Y0197464D01*
X0269145Y0197560D01*
X0269135Y0197656D01*
X0269129Y0197753D01*
X0269127Y0197850D01*
X0269127Y0188008D02*
X0269129Y0188105D01*
X0269135Y0188202D01*
X0269145Y0188298D01*
X0269159Y0188394D01*
X0269177Y0188490D01*
X0269198Y0188584D01*
X0269224Y0188678D01*
X0269253Y0188770D01*
X0269287Y0188861D01*
X0269323Y0188951D01*
X0269364Y0189039D01*
X0269408Y0189125D01*
X0269456Y0189210D01*
X0269507Y0189292D01*
X0269561Y0189373D01*
X0269619Y0189451D01*
X0269680Y0189526D01*
X0269743Y0189599D01*
X0269810Y0189670D01*
X0269880Y0189737D01*
X0269952Y0189802D01*
X0270027Y0189863D01*
X0270105Y0189922D01*
X0270184Y0189977D01*
X0270266Y0190029D01*
X0270350Y0190077D01*
X0270436Y0190122D01*
X0270524Y0190164D01*
X0270613Y0190202D01*
X0270704Y0190236D01*
X0270796Y0190266D01*
X0270889Y0190293D01*
X0270984Y0190315D01*
X0271079Y0190334D01*
X0271175Y0190349D01*
X0271271Y0190360D01*
X0271368Y0190367D01*
X0271465Y0190370D01*
X0271562Y0190369D01*
X0271659Y0190364D01*
X0271755Y0190355D01*
X0271851Y0190342D01*
X0271947Y0190325D01*
X0272042Y0190304D01*
X0272135Y0190280D01*
X0272228Y0190251D01*
X0272320Y0190219D01*
X0272410Y0190183D01*
X0272498Y0190144D01*
X0272585Y0190100D01*
X0272670Y0190054D01*
X0272753Y0190003D01*
X0272834Y0189950D01*
X0272912Y0189893D01*
X0272989Y0189833D01*
X0273062Y0189770D01*
X0273133Y0189704D01*
X0273201Y0189635D01*
X0273267Y0189563D01*
X0273329Y0189489D01*
X0273388Y0189412D01*
X0273444Y0189333D01*
X0273497Y0189251D01*
X0273547Y0189168D01*
X0273592Y0189082D01*
X0273635Y0188995D01*
X0273674Y0188906D01*
X0273709Y0188816D01*
X0273740Y0188724D01*
X0273767Y0188631D01*
X0273791Y0188537D01*
X0273811Y0188442D01*
X0273827Y0188346D01*
X0273839Y0188250D01*
X0273847Y0188153D01*
X0273851Y0188056D01*
X0273851Y0187960D01*
X0273847Y0187863D01*
X0273839Y0187766D01*
X0273827Y0187670D01*
X0273811Y0187574D01*
X0273791Y0187479D01*
X0273767Y0187385D01*
X0273740Y0187292D01*
X0273709Y0187200D01*
X0273674Y0187110D01*
X0273635Y0187021D01*
X0273592Y0186934D01*
X0273547Y0186848D01*
X0273497Y0186765D01*
X0273444Y0186683D01*
X0273388Y0186604D01*
X0273329Y0186527D01*
X0273267Y0186453D01*
X0273201Y0186381D01*
X0273133Y0186312D01*
X0273062Y0186246D01*
X0272989Y0186183D01*
X0272912Y0186123D01*
X0272834Y0186066D01*
X0272753Y0186013D01*
X0272670Y0185962D01*
X0272585Y0185916D01*
X0272498Y0185872D01*
X0272410Y0185833D01*
X0272320Y0185797D01*
X0272228Y0185765D01*
X0272135Y0185736D01*
X0272042Y0185712D01*
X0271947Y0185691D01*
X0271851Y0185674D01*
X0271755Y0185661D01*
X0271659Y0185652D01*
X0271562Y0185647D01*
X0271465Y0185646D01*
X0271368Y0185649D01*
X0271271Y0185656D01*
X0271175Y0185667D01*
X0271079Y0185682D01*
X0270984Y0185701D01*
X0270889Y0185723D01*
X0270796Y0185750D01*
X0270704Y0185780D01*
X0270613Y0185814D01*
X0270524Y0185852D01*
X0270436Y0185894D01*
X0270350Y0185939D01*
X0270266Y0185987D01*
X0270184Y0186039D01*
X0270105Y0186094D01*
X0270027Y0186153D01*
X0269952Y0186214D01*
X0269880Y0186279D01*
X0269810Y0186346D01*
X0269743Y0186417D01*
X0269680Y0186490D01*
X0269619Y0186565D01*
X0269561Y0186643D01*
X0269507Y0186724D01*
X0269456Y0186806D01*
X0269408Y0186891D01*
X0269364Y0186977D01*
X0269323Y0187065D01*
X0269287Y0187155D01*
X0269253Y0187246D01*
X0269224Y0187338D01*
X0269198Y0187432D01*
X0269177Y0187526D01*
X0269159Y0187622D01*
X0269145Y0187718D01*
X0269135Y0187814D01*
X0269129Y0187911D01*
X0269127Y0188008D01*
D11*
X0254757Y0189583D02*
X0254757Y0186433D01*
X0248851Y0186433D01*
X0248851Y0189583D01*
X0254757Y0189583D01*
X0259678Y0201000D02*
X0243930Y0201000D01*
X0243930Y0205724D01*
X0228182Y0205724D01*
X0259678Y0205724D02*
X0259678Y0201000D01*
X0259678Y0205724D02*
X0275426Y0205724D01*
X0273064Y0171276D02*
X0269914Y0171276D01*
X0269914Y0165370D01*
X0273064Y0165370D01*
X0273064Y0171276D01*
X0233694Y0171276D02*
X0233694Y0165370D01*
X0230544Y0165370D01*
X0230544Y0171276D01*
X0233694Y0171276D01*
D12*
X0257810Y0168800D02*
X0260010Y0168800D01*
X0260010Y0167910D02*
X0260010Y0167788D01*
X0260008Y0167752D01*
X0260003Y0167716D01*
X0259994Y0167681D01*
X0259982Y0167648D01*
X0259967Y0167615D01*
X0259948Y0167584D01*
X0259927Y0167555D01*
X0259903Y0167528D01*
X0259876Y0167504D01*
X0259847Y0167483D01*
X0259816Y0167464D01*
X0259783Y0167449D01*
X0259750Y0167437D01*
X0259715Y0167428D01*
X0259679Y0167423D01*
X0259643Y0167421D01*
X0257810Y0167421D01*
X0258543Y0167177D02*
X0258543Y0167910D01*
X0258543Y0168800D02*
X0258543Y0169411D01*
X0258545Y0169447D01*
X0258550Y0169483D01*
X0258559Y0169518D01*
X0258571Y0169551D01*
X0258586Y0169584D01*
X0258605Y0169615D01*
X0258626Y0169644D01*
X0258650Y0169671D01*
X0258677Y0169695D01*
X0258706Y0169716D01*
X0258737Y0169735D01*
X0258770Y0169750D01*
X0258803Y0169762D01*
X0258838Y0169771D01*
X0258874Y0169776D01*
X0258910Y0169778D01*
X0260010Y0169778D01*
X0259643Y0171899D02*
X0258910Y0171899D01*
X0258874Y0171901D01*
X0258838Y0171906D01*
X0258803Y0171915D01*
X0258770Y0171927D01*
X0258737Y0171942D01*
X0258706Y0171961D01*
X0258677Y0171982D01*
X0258650Y0172006D01*
X0258626Y0172033D01*
X0258605Y0172062D01*
X0258586Y0172093D01*
X0258571Y0172126D01*
X0258559Y0172159D01*
X0258550Y0172194D01*
X0258545Y0172230D01*
X0258543Y0172266D01*
X0258543Y0172754D01*
X0259032Y0173552D02*
X0259521Y0173552D01*
X0259564Y0173554D01*
X0259606Y0173559D01*
X0259648Y0173569D01*
X0259688Y0173581D01*
X0259728Y0173598D01*
X0259766Y0173618D01*
X0259801Y0173640D01*
X0259835Y0173666D01*
X0259867Y0173695D01*
X0259896Y0173727D01*
X0259922Y0173761D01*
X0259944Y0173797D01*
X0259964Y0173834D01*
X0259981Y0173874D01*
X0259993Y0173914D01*
X0260003Y0173956D01*
X0260008Y0173998D01*
X0260010Y0174041D01*
X0260008Y0174084D01*
X0260003Y0174126D01*
X0259993Y0174168D01*
X0259981Y0174208D01*
X0259964Y0174248D01*
X0259944Y0174286D01*
X0259922Y0174321D01*
X0259896Y0174355D01*
X0259867Y0174387D01*
X0259835Y0174416D01*
X0259801Y0174442D01*
X0259766Y0174464D01*
X0259728Y0174484D01*
X0259688Y0174501D01*
X0259648Y0174513D01*
X0259606Y0174523D01*
X0259564Y0174528D01*
X0259521Y0174530D01*
X0259032Y0174530D01*
X0258989Y0174528D01*
X0258947Y0174523D01*
X0258905Y0174513D01*
X0258865Y0174501D01*
X0258825Y0174484D01*
X0258788Y0174464D01*
X0258752Y0174442D01*
X0258718Y0174416D01*
X0258686Y0174387D01*
X0258657Y0174355D01*
X0258631Y0174321D01*
X0258609Y0174286D01*
X0258589Y0174248D01*
X0258572Y0174208D01*
X0258560Y0174168D01*
X0258550Y0174126D01*
X0258545Y0174084D01*
X0258543Y0174041D01*
X0258545Y0173998D01*
X0258550Y0173956D01*
X0258560Y0173914D01*
X0258572Y0173874D01*
X0258589Y0173834D01*
X0258609Y0173797D01*
X0258631Y0173761D01*
X0258657Y0173727D01*
X0258686Y0173695D01*
X0258718Y0173666D01*
X0258752Y0173640D01*
X0258788Y0173618D01*
X0258825Y0173598D01*
X0258865Y0173581D01*
X0258905Y0173569D01*
X0258947Y0173559D01*
X0258989Y0173554D01*
X0259032Y0173552D01*
X0260010Y0172754D02*
X0260010Y0172266D01*
X0260008Y0172230D01*
X0260003Y0172194D01*
X0259994Y0172159D01*
X0259982Y0172126D01*
X0259967Y0172093D01*
X0259948Y0172062D01*
X0259927Y0172033D01*
X0259903Y0172006D01*
X0259876Y0171982D01*
X0259847Y0171961D01*
X0259816Y0171942D01*
X0259783Y0171927D01*
X0259750Y0171915D01*
X0259715Y0171906D01*
X0259679Y0171901D01*
X0259643Y0171899D01*
X0260010Y0175508D02*
X0260010Y0176119D01*
X0260008Y0176155D01*
X0260003Y0176191D01*
X0259994Y0176226D01*
X0259982Y0176259D01*
X0259967Y0176292D01*
X0259948Y0176323D01*
X0259927Y0176352D01*
X0259903Y0176379D01*
X0259876Y0176403D01*
X0259847Y0176424D01*
X0259816Y0176443D01*
X0259783Y0176458D01*
X0259750Y0176470D01*
X0259715Y0176479D01*
X0259679Y0176484D01*
X0259643Y0176486D01*
X0259643Y0176485D02*
X0258910Y0176485D01*
X0258910Y0176486D02*
X0258874Y0176484D01*
X0258838Y0176479D01*
X0258803Y0176470D01*
X0258770Y0176458D01*
X0258737Y0176443D01*
X0258706Y0176424D01*
X0258677Y0176403D01*
X0258650Y0176379D01*
X0258626Y0176352D01*
X0258605Y0176323D01*
X0258586Y0176292D01*
X0258571Y0176259D01*
X0258559Y0176226D01*
X0258550Y0176191D01*
X0258545Y0176155D01*
X0258543Y0176119D01*
X0258543Y0175508D01*
X0260743Y0175508D01*
X0260743Y0177452D02*
X0258543Y0177452D01*
X0258543Y0178063D01*
X0258545Y0178099D01*
X0258550Y0178135D01*
X0258559Y0178170D01*
X0258571Y0178203D01*
X0258586Y0178236D01*
X0258605Y0178267D01*
X0258626Y0178296D01*
X0258650Y0178323D01*
X0258677Y0178347D01*
X0258706Y0178368D01*
X0258737Y0178387D01*
X0258770Y0178402D01*
X0258803Y0178414D01*
X0258838Y0178423D01*
X0258874Y0178428D01*
X0258910Y0178430D01*
X0258910Y0178429D02*
X0259643Y0178429D01*
X0259643Y0178430D02*
X0259679Y0178428D01*
X0259715Y0178423D01*
X0259750Y0178414D01*
X0259783Y0178402D01*
X0259816Y0178387D01*
X0259847Y0178368D01*
X0259876Y0178347D01*
X0259903Y0178323D01*
X0259927Y0178296D01*
X0259948Y0178267D01*
X0259967Y0178236D01*
X0259982Y0178203D01*
X0259994Y0178170D01*
X0260003Y0178135D01*
X0260008Y0178099D01*
X0260010Y0178063D01*
X0260010Y0177452D01*
X0259643Y0179312D02*
X0259032Y0179312D01*
X0259276Y0179312D02*
X0259276Y0180290D01*
X0259032Y0180290D01*
X0258989Y0180288D01*
X0258947Y0180283D01*
X0258905Y0180273D01*
X0258865Y0180261D01*
X0258825Y0180244D01*
X0258788Y0180224D01*
X0258752Y0180202D01*
X0258718Y0180176D01*
X0258686Y0180147D01*
X0258657Y0180115D01*
X0258631Y0180081D01*
X0258609Y0180046D01*
X0258589Y0180008D01*
X0258572Y0179968D01*
X0258560Y0179928D01*
X0258550Y0179886D01*
X0258545Y0179844D01*
X0258543Y0179801D01*
X0258545Y0179758D01*
X0258550Y0179716D01*
X0258560Y0179674D01*
X0258572Y0179634D01*
X0258589Y0179594D01*
X0258609Y0179557D01*
X0258631Y0179521D01*
X0258657Y0179487D01*
X0258686Y0179455D01*
X0258718Y0179426D01*
X0258752Y0179400D01*
X0258788Y0179378D01*
X0258825Y0179358D01*
X0258865Y0179341D01*
X0258905Y0179329D01*
X0258947Y0179319D01*
X0258989Y0179314D01*
X0259032Y0179312D01*
X0259643Y0179312D02*
X0259679Y0179314D01*
X0259715Y0179319D01*
X0259750Y0179328D01*
X0259783Y0179340D01*
X0259816Y0179355D01*
X0259847Y0179374D01*
X0259876Y0179395D01*
X0259903Y0179419D01*
X0259927Y0179446D01*
X0259948Y0179475D01*
X0259967Y0179506D01*
X0259982Y0179539D01*
X0259994Y0179572D01*
X0260003Y0179607D01*
X0260008Y0179643D01*
X0260010Y0179679D01*
X0260010Y0180290D01*
X0260010Y0181269D02*
X0258543Y0181269D01*
X0258543Y0182002D01*
X0258788Y0182002D01*
X0257932Y0166542D02*
X0257932Y0166420D01*
X0257810Y0166420D01*
X0257810Y0166542D01*
X0257932Y0166542D01*
X0258543Y0166481D02*
X0260010Y0166481D01*
X0260010Y0165264D02*
X0258543Y0165631D01*
X0259032Y0164897D02*
X0260010Y0165264D01*
X0260010Y0164531D02*
X0259032Y0164897D01*
X0258543Y0164164D02*
X0260010Y0164531D01*
X0259399Y0161963D02*
X0259154Y0161352D01*
X0259154Y0161351D02*
X0259139Y0161319D01*
X0259121Y0161289D01*
X0259100Y0161262D01*
X0259075Y0161236D01*
X0259048Y0161214D01*
X0259019Y0161195D01*
X0258987Y0161179D01*
X0258954Y0161166D01*
X0258920Y0161158D01*
X0258885Y0161153D01*
X0258850Y0161152D01*
X0258815Y0161155D01*
X0258781Y0161162D01*
X0258747Y0161173D01*
X0258715Y0161187D01*
X0258685Y0161205D01*
X0258657Y0161226D01*
X0258631Y0161250D01*
X0258608Y0161277D01*
X0258588Y0161306D01*
X0258572Y0161337D01*
X0258559Y0161370D01*
X0258550Y0161404D01*
X0258544Y0161438D01*
X0258543Y0161474D01*
X0259888Y0161168D02*
X0259915Y0161249D01*
X0259939Y0161332D01*
X0259959Y0161415D01*
X0259977Y0161499D01*
X0259990Y0161584D01*
X0260000Y0161669D01*
X0260007Y0161755D01*
X0260010Y0161840D01*
X0260009Y0161876D01*
X0260003Y0161910D01*
X0259994Y0161944D01*
X0259981Y0161977D01*
X0259965Y0162008D01*
X0259945Y0162037D01*
X0259922Y0162064D01*
X0259896Y0162088D01*
X0259868Y0162109D01*
X0259838Y0162127D01*
X0259806Y0162141D01*
X0259772Y0162152D01*
X0259738Y0162159D01*
X0259703Y0162162D01*
X0259668Y0162161D01*
X0259633Y0162156D01*
X0259599Y0162148D01*
X0259566Y0162135D01*
X0259534Y0162119D01*
X0259505Y0162100D01*
X0259478Y0162078D01*
X0259453Y0162052D01*
X0259432Y0162025D01*
X0259414Y0161995D01*
X0259399Y0161963D01*
X0258665Y0162024D02*
X0258638Y0161958D01*
X0258614Y0161892D01*
X0258593Y0161824D01*
X0258576Y0161755D01*
X0258562Y0161686D01*
X0258552Y0161615D01*
X0258546Y0161545D01*
X0258543Y0161474D01*
X0259643Y0160043D02*
X0259679Y0160045D01*
X0259715Y0160050D01*
X0259750Y0160059D01*
X0259783Y0160071D01*
X0259816Y0160086D01*
X0259847Y0160105D01*
X0259876Y0160126D01*
X0259903Y0160150D01*
X0259927Y0160177D01*
X0259948Y0160206D01*
X0259967Y0160237D01*
X0259982Y0160270D01*
X0259994Y0160303D01*
X0260003Y0160338D01*
X0260008Y0160374D01*
X0260010Y0160410D01*
X0259643Y0160044D02*
X0257810Y0160044D01*
X0257810Y0158892D02*
X0259643Y0158892D01*
X0259643Y0158891D02*
X0259679Y0158893D01*
X0259715Y0158898D01*
X0259750Y0158907D01*
X0259783Y0158919D01*
X0259816Y0158934D01*
X0259847Y0158953D01*
X0259876Y0158974D01*
X0259903Y0158998D01*
X0259927Y0159025D01*
X0259948Y0159054D01*
X0259967Y0159085D01*
X0259982Y0159118D01*
X0259994Y0159151D01*
X0260003Y0159186D01*
X0260008Y0159222D01*
X0260010Y0159258D01*
X0260010Y0157985D02*
X0258543Y0157985D01*
X0257932Y0158046D02*
X0257932Y0157924D01*
X0257810Y0157924D01*
X0257810Y0158046D01*
X0257932Y0158046D01*
X0258543Y0157307D02*
X0258788Y0157307D01*
X0258543Y0157307D02*
X0258543Y0156573D01*
X0260010Y0156573D01*
X0259399Y0155500D02*
X0258421Y0155500D01*
X0258373Y0155498D01*
X0258325Y0155492D01*
X0258278Y0155483D01*
X0258232Y0155470D01*
X0258187Y0155453D01*
X0258144Y0155433D01*
X0258102Y0155410D01*
X0258062Y0155383D01*
X0258024Y0155354D01*
X0257989Y0155321D01*
X0257956Y0155286D01*
X0257927Y0155248D01*
X0257900Y0155208D01*
X0257877Y0155166D01*
X0257857Y0155123D01*
X0257840Y0155078D01*
X0257827Y0155032D01*
X0257818Y0154985D01*
X0257812Y0154937D01*
X0257810Y0154889D01*
X0257810Y0154278D01*
X0260010Y0154278D01*
X0260010Y0154889D01*
X0260008Y0154937D01*
X0260002Y0154985D01*
X0259993Y0155032D01*
X0259980Y0155078D01*
X0259963Y0155123D01*
X0259943Y0155166D01*
X0259920Y0155208D01*
X0259893Y0155248D01*
X0259864Y0155286D01*
X0259831Y0155321D01*
X0259796Y0155354D01*
X0259758Y0155383D01*
X0259718Y0155410D01*
X0259676Y0155433D01*
X0259633Y0155453D01*
X0259588Y0155470D01*
X0259542Y0155483D01*
X0259495Y0155492D01*
X0259447Y0155498D01*
X0259399Y0155500D01*
X0262143Y0155524D02*
X0262143Y0156624D01*
X0262143Y0156257D02*
X0263610Y0156257D01*
X0263610Y0155524D02*
X0262143Y0155524D01*
X0262143Y0156624D02*
X0262145Y0156660D01*
X0262150Y0156696D01*
X0262159Y0156731D01*
X0262171Y0156764D01*
X0262186Y0156797D01*
X0262205Y0156828D01*
X0262226Y0156857D01*
X0262250Y0156884D01*
X0262277Y0156908D01*
X0262306Y0156929D01*
X0262337Y0156948D01*
X0262370Y0156963D01*
X0262403Y0156975D01*
X0262438Y0156984D01*
X0262474Y0156989D01*
X0262510Y0156991D01*
X0263610Y0156991D01*
X0263610Y0158116D02*
X0262143Y0158116D01*
X0262143Y0159216D01*
X0262143Y0158849D02*
X0263610Y0158849D01*
X0263610Y0159583D02*
X0262510Y0159583D01*
X0262474Y0159581D01*
X0262438Y0159576D01*
X0262403Y0159567D01*
X0262370Y0159555D01*
X0262337Y0159540D01*
X0262306Y0159521D01*
X0262277Y0159500D01*
X0262250Y0159476D01*
X0262226Y0159449D01*
X0262205Y0159420D01*
X0262186Y0159389D01*
X0262171Y0159356D01*
X0262159Y0159323D01*
X0262150Y0159288D01*
X0262145Y0159252D01*
X0262143Y0159216D01*
X0261899Y0154370D02*
X0261942Y0154368D01*
X0261984Y0154363D01*
X0262026Y0154353D01*
X0262066Y0154341D01*
X0262106Y0154324D01*
X0262144Y0154304D01*
X0262179Y0154282D01*
X0262213Y0154256D01*
X0262245Y0154227D01*
X0262274Y0154195D01*
X0262300Y0154161D01*
X0262322Y0154126D01*
X0262342Y0154088D01*
X0262359Y0154048D01*
X0262371Y0154008D01*
X0262381Y0153966D01*
X0262386Y0153924D01*
X0262388Y0153881D01*
X0262386Y0153838D01*
X0262381Y0153796D01*
X0262371Y0153754D01*
X0262359Y0153714D01*
X0262342Y0153674D01*
X0262322Y0153637D01*
X0262300Y0153601D01*
X0262274Y0153567D01*
X0262245Y0153535D01*
X0262213Y0153506D01*
X0262179Y0153480D01*
X0262144Y0153458D01*
X0262106Y0153438D01*
X0262066Y0153421D01*
X0262026Y0153409D01*
X0261984Y0153399D01*
X0261942Y0153394D01*
X0261899Y0153392D01*
X0261856Y0153394D01*
X0261814Y0153399D01*
X0261772Y0153409D01*
X0261732Y0153421D01*
X0261692Y0153438D01*
X0261655Y0153458D01*
X0261619Y0153480D01*
X0261585Y0153506D01*
X0261553Y0153535D01*
X0261524Y0153567D01*
X0261498Y0153601D01*
X0261476Y0153637D01*
X0261456Y0153674D01*
X0261439Y0153714D01*
X0261427Y0153754D01*
X0261417Y0153796D01*
X0261412Y0153838D01*
X0261410Y0153881D01*
X0261412Y0153924D01*
X0261417Y0153966D01*
X0261427Y0154008D01*
X0261439Y0154048D01*
X0261456Y0154088D01*
X0261476Y0154126D01*
X0261498Y0154161D01*
X0261524Y0154195D01*
X0261553Y0154227D01*
X0261585Y0154256D01*
X0261619Y0154282D01*
X0261655Y0154304D01*
X0261692Y0154324D01*
X0261732Y0154341D01*
X0261772Y0154353D01*
X0261814Y0154363D01*
X0261856Y0154368D01*
X0261899Y0154370D01*
X0262999Y0154492D02*
X0263047Y0154490D01*
X0263095Y0154484D01*
X0263142Y0154475D01*
X0263188Y0154462D01*
X0263233Y0154445D01*
X0263276Y0154425D01*
X0263318Y0154402D01*
X0263358Y0154375D01*
X0263396Y0154346D01*
X0263431Y0154313D01*
X0263464Y0154278D01*
X0263493Y0154240D01*
X0263520Y0154200D01*
X0263543Y0154158D01*
X0263563Y0154115D01*
X0263580Y0154070D01*
X0263593Y0154024D01*
X0263602Y0153977D01*
X0263608Y0153929D01*
X0263610Y0153881D01*
X0263608Y0153833D01*
X0263602Y0153785D01*
X0263593Y0153738D01*
X0263580Y0153692D01*
X0263563Y0153647D01*
X0263543Y0153604D01*
X0263520Y0153562D01*
X0263493Y0153522D01*
X0263464Y0153484D01*
X0263431Y0153449D01*
X0263396Y0153416D01*
X0263358Y0153387D01*
X0263318Y0153360D01*
X0263276Y0153337D01*
X0263233Y0153317D01*
X0263188Y0153300D01*
X0263142Y0153287D01*
X0263095Y0153278D01*
X0263047Y0153272D01*
X0262999Y0153270D01*
X0262951Y0153272D01*
X0262903Y0153278D01*
X0262856Y0153287D01*
X0262810Y0153300D01*
X0262765Y0153317D01*
X0262722Y0153337D01*
X0262680Y0153360D01*
X0262640Y0153387D01*
X0262602Y0153416D01*
X0262567Y0153449D01*
X0262534Y0153484D01*
X0262505Y0153522D01*
X0262478Y0153562D01*
X0262455Y0153604D01*
X0262435Y0153647D01*
X0262418Y0153692D01*
X0262405Y0153738D01*
X0262396Y0153785D01*
X0262390Y0153833D01*
X0262388Y0153881D01*
X0262390Y0153929D01*
X0262396Y0153977D01*
X0262405Y0154024D01*
X0262418Y0154070D01*
X0262435Y0154115D01*
X0262455Y0154158D01*
X0262478Y0154200D01*
X0262505Y0154240D01*
X0262534Y0154278D01*
X0262567Y0154313D01*
X0262602Y0154346D01*
X0262640Y0154375D01*
X0262680Y0154402D01*
X0262722Y0154425D01*
X0262765Y0154445D01*
X0262810Y0154462D01*
X0262856Y0154475D01*
X0262903Y0154484D01*
X0262951Y0154490D01*
X0262999Y0154492D01*
X0263488Y0152430D02*
X0263610Y0152430D01*
X0263610Y0152308D01*
X0263488Y0152308D01*
X0263488Y0152430D01*
X0263304Y0150429D02*
X0263230Y0150395D01*
X0263154Y0150364D01*
X0263076Y0150337D01*
X0262997Y0150313D01*
X0262918Y0150292D01*
X0262837Y0150276D01*
X0262756Y0150263D01*
X0262674Y0150253D01*
X0262592Y0150248D01*
X0262510Y0150246D01*
X0262510Y0151469D02*
X0262428Y0151467D01*
X0262346Y0151462D01*
X0262264Y0151452D01*
X0262183Y0151439D01*
X0262102Y0151423D01*
X0262023Y0151402D01*
X0261944Y0151378D01*
X0261866Y0151351D01*
X0261790Y0151320D01*
X0261716Y0151286D01*
X0261899Y0151346D02*
X0263121Y0150369D01*
X0263610Y0150857D02*
X0263608Y0150897D01*
X0263603Y0150937D01*
X0263594Y0150976D01*
X0263582Y0151014D01*
X0263566Y0151051D01*
X0263548Y0151086D01*
X0263526Y0151120D01*
X0263501Y0151151D01*
X0263474Y0151180D01*
X0263444Y0151207D01*
X0263412Y0151231D01*
X0263378Y0151252D01*
X0263342Y0151270D01*
X0263305Y0151285D01*
X0263610Y0150857D02*
X0263608Y0150817D01*
X0263603Y0150777D01*
X0263594Y0150738D01*
X0263582Y0150700D01*
X0263566Y0150663D01*
X0263548Y0150628D01*
X0263526Y0150594D01*
X0263501Y0150563D01*
X0263474Y0150534D01*
X0263444Y0150507D01*
X0263412Y0150483D01*
X0263378Y0150462D01*
X0263342Y0150444D01*
X0263305Y0150429D01*
X0263610Y0149402D02*
X0262143Y0148425D01*
X0262143Y0149402D02*
X0263610Y0148425D01*
X0263121Y0147581D02*
X0262876Y0147581D01*
X0262833Y0147579D01*
X0262791Y0147574D01*
X0262749Y0147564D01*
X0262709Y0147552D01*
X0262669Y0147535D01*
X0262632Y0147515D01*
X0262596Y0147493D01*
X0262562Y0147467D01*
X0262530Y0147438D01*
X0262501Y0147406D01*
X0262475Y0147372D01*
X0262453Y0147337D01*
X0262433Y0147299D01*
X0262416Y0147259D01*
X0262404Y0147219D01*
X0262394Y0147177D01*
X0262389Y0147135D01*
X0262387Y0147092D01*
X0262388Y0147092D02*
X0262388Y0146358D01*
X0261410Y0146358D01*
X0261410Y0147581D01*
X0263121Y0147581D02*
X0263164Y0147579D01*
X0263206Y0147574D01*
X0263248Y0147564D01*
X0263288Y0147552D01*
X0263328Y0147535D01*
X0263366Y0147515D01*
X0263401Y0147493D01*
X0263435Y0147467D01*
X0263467Y0147438D01*
X0263496Y0147406D01*
X0263522Y0147372D01*
X0263544Y0147337D01*
X0263564Y0147299D01*
X0263581Y0147259D01*
X0263593Y0147219D01*
X0263603Y0147177D01*
X0263608Y0147135D01*
X0263610Y0147092D01*
X0263610Y0146358D01*
X0263610Y0145519D02*
X0263610Y0145396D01*
X0263488Y0145396D01*
X0263488Y0145519D01*
X0263610Y0145519D01*
X0263610Y0144557D02*
X0263610Y0143334D01*
X0263610Y0143945D02*
X0261410Y0143945D01*
X0261899Y0143334D01*
X0260010Y0143334D02*
X0260010Y0143945D01*
X0260008Y0143993D01*
X0260002Y0144041D01*
X0259993Y0144088D01*
X0259980Y0144134D01*
X0259963Y0144179D01*
X0259943Y0144222D01*
X0259920Y0144264D01*
X0259893Y0144304D01*
X0259864Y0144342D01*
X0259831Y0144377D01*
X0259796Y0144410D01*
X0259758Y0144439D01*
X0259718Y0144466D01*
X0259676Y0144489D01*
X0259633Y0144509D01*
X0259588Y0144526D01*
X0259542Y0144539D01*
X0259495Y0144548D01*
X0259447Y0144554D01*
X0259399Y0144556D01*
X0259351Y0144554D01*
X0259303Y0144548D01*
X0259256Y0144539D01*
X0259210Y0144526D01*
X0259165Y0144509D01*
X0259122Y0144489D01*
X0259080Y0144466D01*
X0259040Y0144439D01*
X0259002Y0144410D01*
X0258967Y0144377D01*
X0258934Y0144342D01*
X0258905Y0144304D01*
X0258878Y0144264D01*
X0258855Y0144222D01*
X0258835Y0144179D01*
X0258818Y0144134D01*
X0258805Y0144088D01*
X0258796Y0144041D01*
X0258790Y0143993D01*
X0258788Y0143945D01*
X0258788Y0144068D02*
X0258788Y0143579D01*
X0258788Y0144068D02*
X0258786Y0144111D01*
X0258781Y0144153D01*
X0258771Y0144195D01*
X0258759Y0144235D01*
X0258742Y0144275D01*
X0258722Y0144313D01*
X0258700Y0144348D01*
X0258674Y0144382D01*
X0258645Y0144414D01*
X0258613Y0144443D01*
X0258579Y0144469D01*
X0258544Y0144491D01*
X0258506Y0144511D01*
X0258466Y0144528D01*
X0258426Y0144540D01*
X0258384Y0144550D01*
X0258342Y0144555D01*
X0258299Y0144557D01*
X0258256Y0144555D01*
X0258214Y0144550D01*
X0258172Y0144540D01*
X0258132Y0144528D01*
X0258092Y0144511D01*
X0258055Y0144491D01*
X0258019Y0144469D01*
X0257985Y0144443D01*
X0257953Y0144414D01*
X0257924Y0144382D01*
X0257898Y0144348D01*
X0257876Y0144313D01*
X0257856Y0144275D01*
X0257839Y0144235D01*
X0257827Y0144195D01*
X0257817Y0144153D01*
X0257812Y0144111D01*
X0257810Y0144068D01*
X0257810Y0143334D01*
X0258726Y0146880D02*
X0259093Y0147552D01*
X0260010Y0147308D02*
X0260008Y0147245D01*
X0260002Y0147183D01*
X0259993Y0147121D01*
X0259980Y0147060D01*
X0259963Y0146999D01*
X0259942Y0146940D01*
X0259918Y0146882D01*
X0259890Y0146826D01*
X0259859Y0146771D01*
X0259825Y0146718D01*
X0259788Y0146668D01*
X0259748Y0146620D01*
X0259704Y0146575D01*
X0259093Y0147552D02*
X0259116Y0147588D01*
X0259143Y0147622D01*
X0259172Y0147654D01*
X0259204Y0147683D01*
X0259238Y0147709D01*
X0259274Y0147732D01*
X0259313Y0147751D01*
X0259352Y0147768D01*
X0259393Y0147780D01*
X0259435Y0147790D01*
X0259478Y0147795D01*
X0259521Y0147797D01*
X0259564Y0147795D01*
X0259606Y0147790D01*
X0259648Y0147780D01*
X0259688Y0147768D01*
X0259728Y0147751D01*
X0259766Y0147731D01*
X0259801Y0147709D01*
X0259835Y0147683D01*
X0259867Y0147654D01*
X0259896Y0147622D01*
X0259922Y0147588D01*
X0259944Y0147553D01*
X0259964Y0147515D01*
X0259981Y0147475D01*
X0259993Y0147435D01*
X0260003Y0147393D01*
X0260008Y0147351D01*
X0260010Y0147308D01*
X0257992Y0147674D02*
X0257959Y0147626D01*
X0257928Y0147576D01*
X0257900Y0147523D01*
X0257877Y0147469D01*
X0257856Y0147414D01*
X0257839Y0147357D01*
X0257826Y0147300D01*
X0257817Y0147242D01*
X0257811Y0147183D01*
X0257809Y0147124D01*
X0257810Y0147124D02*
X0257812Y0147081D01*
X0257817Y0147039D01*
X0257827Y0146997D01*
X0257839Y0146957D01*
X0257856Y0146917D01*
X0257876Y0146880D01*
X0257898Y0146844D01*
X0257924Y0146810D01*
X0257953Y0146778D01*
X0257985Y0146749D01*
X0258019Y0146723D01*
X0258055Y0146701D01*
X0258092Y0146681D01*
X0258132Y0146664D01*
X0258172Y0146652D01*
X0258214Y0146642D01*
X0258256Y0146637D01*
X0258299Y0146635D01*
X0258342Y0146637D01*
X0258385Y0146642D01*
X0258427Y0146652D01*
X0258468Y0146664D01*
X0258507Y0146681D01*
X0258546Y0146700D01*
X0258582Y0146723D01*
X0258616Y0146749D01*
X0258648Y0146778D01*
X0258677Y0146810D01*
X0258704Y0146844D01*
X0258727Y0146880D01*
X0259643Y0148668D02*
X0257810Y0148668D01*
X0259032Y0149793D02*
X0259521Y0149793D01*
X0259521Y0149792D02*
X0259564Y0149794D01*
X0259606Y0149799D01*
X0259648Y0149809D01*
X0259688Y0149821D01*
X0259728Y0149838D01*
X0259766Y0149858D01*
X0259801Y0149880D01*
X0259835Y0149906D01*
X0259867Y0149935D01*
X0259896Y0149967D01*
X0259922Y0150001D01*
X0259944Y0150037D01*
X0259964Y0150074D01*
X0259981Y0150114D01*
X0259993Y0150154D01*
X0260003Y0150196D01*
X0260008Y0150238D01*
X0260010Y0150281D01*
X0260008Y0150324D01*
X0260003Y0150366D01*
X0259993Y0150408D01*
X0259981Y0150448D01*
X0259964Y0150488D01*
X0259944Y0150526D01*
X0259922Y0150561D01*
X0259896Y0150595D01*
X0259867Y0150627D01*
X0259835Y0150656D01*
X0259801Y0150682D01*
X0259766Y0150704D01*
X0259728Y0150724D01*
X0259688Y0150741D01*
X0259648Y0150753D01*
X0259606Y0150763D01*
X0259564Y0150768D01*
X0259521Y0150770D01*
X0259032Y0150770D01*
X0258989Y0150768D01*
X0258947Y0150763D01*
X0258905Y0150753D01*
X0258865Y0150741D01*
X0258825Y0150724D01*
X0258788Y0150704D01*
X0258752Y0150682D01*
X0258718Y0150656D01*
X0258686Y0150627D01*
X0258657Y0150595D01*
X0258631Y0150561D01*
X0258609Y0150526D01*
X0258589Y0150488D01*
X0258572Y0150448D01*
X0258560Y0150408D01*
X0258550Y0150366D01*
X0258545Y0150324D01*
X0258543Y0150281D01*
X0258545Y0150238D01*
X0258550Y0150196D01*
X0258560Y0150154D01*
X0258572Y0150114D01*
X0258589Y0150074D01*
X0258609Y0150037D01*
X0258631Y0150001D01*
X0258657Y0149967D01*
X0258686Y0149935D01*
X0258718Y0149906D01*
X0258752Y0149880D01*
X0258788Y0149858D01*
X0258825Y0149838D01*
X0258865Y0149821D01*
X0258905Y0149809D01*
X0258947Y0149799D01*
X0258989Y0149794D01*
X0259032Y0149792D01*
X0260010Y0149035D02*
X0260008Y0148999D01*
X0260003Y0148963D01*
X0259994Y0148928D01*
X0259982Y0148895D01*
X0259967Y0148862D01*
X0259948Y0148831D01*
X0259927Y0148802D01*
X0259903Y0148775D01*
X0259876Y0148751D01*
X0259847Y0148730D01*
X0259816Y0148711D01*
X0259783Y0148696D01*
X0259750Y0148684D01*
X0259715Y0148675D01*
X0259679Y0148670D01*
X0259643Y0148668D01*
X0258543Y0151481D02*
X0258543Y0152214D01*
X0257810Y0151725D02*
X0259643Y0151725D01*
X0259679Y0151727D01*
X0259715Y0151732D01*
X0259750Y0151741D01*
X0259783Y0151753D01*
X0259816Y0151768D01*
X0259847Y0151787D01*
X0259876Y0151808D01*
X0259903Y0151832D01*
X0259927Y0151859D01*
X0259948Y0151888D01*
X0259967Y0151919D01*
X0259982Y0151952D01*
X0259994Y0151985D01*
X0260003Y0152020D01*
X0260008Y0152056D01*
X0260010Y0152092D01*
X0260010Y0152214D01*
X0261715Y0151285D02*
X0261678Y0151270D01*
X0261642Y0151252D01*
X0261608Y0151231D01*
X0261576Y0151207D01*
X0261546Y0151180D01*
X0261519Y0151151D01*
X0261494Y0151120D01*
X0261472Y0151086D01*
X0261454Y0151051D01*
X0261438Y0151014D01*
X0261426Y0150976D01*
X0261417Y0150937D01*
X0261412Y0150897D01*
X0261410Y0150857D01*
X0261412Y0150817D01*
X0261417Y0150777D01*
X0261426Y0150738D01*
X0261438Y0150700D01*
X0261454Y0150663D01*
X0261472Y0150628D01*
X0261494Y0150594D01*
X0261519Y0150563D01*
X0261546Y0150534D01*
X0261576Y0150507D01*
X0261608Y0150483D01*
X0261642Y0150462D01*
X0261678Y0150444D01*
X0261715Y0150429D01*
X0262510Y0151469D02*
X0262592Y0151467D01*
X0262674Y0151462D01*
X0262756Y0151452D01*
X0262837Y0151439D01*
X0262918Y0151423D01*
X0262997Y0151402D01*
X0263076Y0151378D01*
X0263154Y0151351D01*
X0263230Y0151320D01*
X0263304Y0151286D01*
X0262510Y0150246D02*
X0262428Y0150248D01*
X0262346Y0150253D01*
X0262264Y0150263D01*
X0262183Y0150276D01*
X0262102Y0150292D01*
X0262023Y0150313D01*
X0261944Y0150337D01*
X0261866Y0150364D01*
X0261790Y0150395D01*
X0261716Y0150429D01*
M02*
