%
M48
M72
T01C0.01378
T02C0.03150
T03C0.03937
T04C0.04331
T05C0.04724
T06C0.12598
%
T01
X86450Y126984
X58891Y113205
X139600Y115173
X149442Y101394
X147474Y95488
X156303Y87614
X162801Y75686
X175033Y73835
X186333Y85646
X190781Y89583
X180938Y99425
X173064Y99425
X163222Y99425
X165190Y111236
X177001Y121079
X163722Y124516
X157816Y122547
X161253Y134858
X177001Y142732
X181438Y136827
X198655Y156512
X190781Y160449
X180938Y160449
X171096Y160449
X159285Y160449
X151411Y160449
X147474Y156512
X210466Y146669
X222277Y144701
X222277Y172260
X283300Y164386
X275426Y128953
X238025Y93520
X259678Y91551
X277395Y91551
X253773Y73835
X271489Y65961
X210466Y67929
X208497Y85646
X147474Y65961
T02
X232119Y168323
X271489Y168323
X251804Y188008
T03
X115977Y188008
X125977Y188008
X135977Y188008
X145977Y188008
X155977Y188008
X174560Y188008
X184560Y188008
X194560Y188008
X204560Y188008
X248064Y139854
X238064Y139854
X258064Y139854
X268064Y139854
T04
X74639Y168323
X84639Y168323
X94639Y168323
T05
X232119Y188008
X232119Y197850
X271489Y197850
X271489Y188008
X251804Y168323
T06
X39206Y24622
X302985Y24622
X302985Y189976
X39206Y189976
M30
