G75*
%MOIN*%
%OFA0B0*%
%FSLAX25Y25*%
%IPPOS*%
%LPD*%
%AMOC8*
5,1,8,0,0,1.08239X$1,22.5*
%
%ADD10C,0.00000*%
D10*
X0023458Y0024622D02*
X0023458Y0189976D01*
X0023463Y0190357D01*
X0023476Y0190737D01*
X0023499Y0191117D01*
X0023532Y0191496D01*
X0023573Y0191874D01*
X0023623Y0192251D01*
X0023683Y0192627D01*
X0023751Y0193002D01*
X0023829Y0193374D01*
X0023916Y0193745D01*
X0024011Y0194113D01*
X0024116Y0194479D01*
X0024229Y0194842D01*
X0024351Y0195203D01*
X0024481Y0195560D01*
X0024621Y0195914D01*
X0024768Y0196265D01*
X0024925Y0196612D01*
X0025089Y0196955D01*
X0025262Y0197294D01*
X0025443Y0197629D01*
X0025632Y0197960D01*
X0025829Y0198285D01*
X0026033Y0198606D01*
X0026246Y0198922D01*
X0026466Y0199232D01*
X0026693Y0199538D01*
X0026928Y0199837D01*
X0027170Y0200131D01*
X0027418Y0200419D01*
X0027674Y0200701D01*
X0027937Y0200976D01*
X0028206Y0201245D01*
X0028481Y0201508D01*
X0028763Y0201764D01*
X0029051Y0202012D01*
X0029345Y0202254D01*
X0029644Y0202489D01*
X0029950Y0202716D01*
X0030260Y0202936D01*
X0030576Y0203149D01*
X0030897Y0203353D01*
X0031222Y0203550D01*
X0031553Y0203739D01*
X0031888Y0203920D01*
X0032227Y0204093D01*
X0032570Y0204257D01*
X0032917Y0204414D01*
X0033268Y0204561D01*
X0033622Y0204701D01*
X0033979Y0204831D01*
X0034340Y0204953D01*
X0034703Y0205066D01*
X0035069Y0205171D01*
X0035437Y0205266D01*
X0035808Y0205353D01*
X0036180Y0205431D01*
X0036555Y0205499D01*
X0036931Y0205559D01*
X0037308Y0205609D01*
X0037686Y0205650D01*
X0038065Y0205683D01*
X0038445Y0205706D01*
X0038825Y0205719D01*
X0039206Y0205724D01*
X0302985Y0205724D01*
X0303366Y0205719D01*
X0303746Y0205706D01*
X0304126Y0205683D01*
X0304505Y0205650D01*
X0304883Y0205609D01*
X0305260Y0205559D01*
X0305636Y0205499D01*
X0306011Y0205431D01*
X0306383Y0205353D01*
X0306754Y0205266D01*
X0307122Y0205171D01*
X0307488Y0205066D01*
X0307851Y0204953D01*
X0308212Y0204831D01*
X0308569Y0204701D01*
X0308923Y0204561D01*
X0309274Y0204414D01*
X0309621Y0204257D01*
X0309964Y0204093D01*
X0310303Y0203920D01*
X0310638Y0203739D01*
X0310969Y0203550D01*
X0311294Y0203353D01*
X0311615Y0203149D01*
X0311931Y0202936D01*
X0312241Y0202716D01*
X0312547Y0202489D01*
X0312846Y0202254D01*
X0313140Y0202012D01*
X0313428Y0201764D01*
X0313710Y0201508D01*
X0313985Y0201245D01*
X0314254Y0200976D01*
X0314517Y0200701D01*
X0314773Y0200419D01*
X0315021Y0200131D01*
X0315263Y0199837D01*
X0315498Y0199538D01*
X0315725Y0199232D01*
X0315945Y0198922D01*
X0316158Y0198606D01*
X0316362Y0198285D01*
X0316559Y0197960D01*
X0316748Y0197629D01*
X0316929Y0197294D01*
X0317102Y0196955D01*
X0317266Y0196612D01*
X0317423Y0196265D01*
X0317570Y0195914D01*
X0317710Y0195560D01*
X0317840Y0195203D01*
X0317962Y0194842D01*
X0318075Y0194479D01*
X0318180Y0194113D01*
X0318275Y0193745D01*
X0318362Y0193374D01*
X0318440Y0193002D01*
X0318508Y0192627D01*
X0318568Y0192251D01*
X0318618Y0191874D01*
X0318659Y0191496D01*
X0318692Y0191117D01*
X0318715Y0190737D01*
X0318728Y0190357D01*
X0318733Y0189976D01*
X0318733Y0024622D01*
X0318728Y0024241D01*
X0318715Y0023861D01*
X0318692Y0023481D01*
X0318659Y0023102D01*
X0318618Y0022724D01*
X0318568Y0022347D01*
X0318508Y0021971D01*
X0318440Y0021596D01*
X0318362Y0021224D01*
X0318275Y0020853D01*
X0318180Y0020485D01*
X0318075Y0020119D01*
X0317962Y0019756D01*
X0317840Y0019395D01*
X0317710Y0019038D01*
X0317570Y0018684D01*
X0317423Y0018333D01*
X0317266Y0017986D01*
X0317102Y0017643D01*
X0316929Y0017304D01*
X0316748Y0016969D01*
X0316559Y0016638D01*
X0316362Y0016313D01*
X0316158Y0015992D01*
X0315945Y0015676D01*
X0315725Y0015366D01*
X0315498Y0015060D01*
X0315263Y0014761D01*
X0315021Y0014467D01*
X0314773Y0014179D01*
X0314517Y0013897D01*
X0314254Y0013622D01*
X0313985Y0013353D01*
X0313710Y0013090D01*
X0313428Y0012834D01*
X0313140Y0012586D01*
X0312846Y0012344D01*
X0312547Y0012109D01*
X0312241Y0011882D01*
X0311931Y0011662D01*
X0311615Y0011449D01*
X0311294Y0011245D01*
X0310969Y0011048D01*
X0310638Y0010859D01*
X0310303Y0010678D01*
X0309964Y0010505D01*
X0309621Y0010341D01*
X0309274Y0010184D01*
X0308923Y0010037D01*
X0308569Y0009897D01*
X0308212Y0009767D01*
X0307851Y0009645D01*
X0307488Y0009532D01*
X0307122Y0009427D01*
X0306754Y0009332D01*
X0306383Y0009245D01*
X0306011Y0009167D01*
X0305636Y0009099D01*
X0305260Y0009039D01*
X0304883Y0008989D01*
X0304505Y0008948D01*
X0304126Y0008915D01*
X0303746Y0008892D01*
X0303366Y0008879D01*
X0302985Y0008874D01*
X0039206Y0008874D01*
X0038825Y0008879D01*
X0038445Y0008892D01*
X0038065Y0008915D01*
X0037686Y0008948D01*
X0037308Y0008989D01*
X0036931Y0009039D01*
X0036555Y0009099D01*
X0036180Y0009167D01*
X0035808Y0009245D01*
X0035437Y0009332D01*
X0035069Y0009427D01*
X0034703Y0009532D01*
X0034340Y0009645D01*
X0033979Y0009767D01*
X0033622Y0009897D01*
X0033268Y0010037D01*
X0032917Y0010184D01*
X0032570Y0010341D01*
X0032227Y0010505D01*
X0031888Y0010678D01*
X0031553Y0010859D01*
X0031222Y0011048D01*
X0030897Y0011245D01*
X0030576Y0011449D01*
X0030260Y0011662D01*
X0029950Y0011882D01*
X0029644Y0012109D01*
X0029345Y0012344D01*
X0029051Y0012586D01*
X0028763Y0012834D01*
X0028481Y0013090D01*
X0028206Y0013353D01*
X0027937Y0013622D01*
X0027674Y0013897D01*
X0027418Y0014179D01*
X0027170Y0014467D01*
X0026928Y0014761D01*
X0026693Y0015060D01*
X0026466Y0015366D01*
X0026246Y0015676D01*
X0026033Y0015992D01*
X0025829Y0016313D01*
X0025632Y0016638D01*
X0025443Y0016969D01*
X0025262Y0017304D01*
X0025089Y0017643D01*
X0024925Y0017986D01*
X0024768Y0018333D01*
X0024621Y0018684D01*
X0024481Y0019038D01*
X0024351Y0019395D01*
X0024229Y0019756D01*
X0024116Y0020119D01*
X0024011Y0020485D01*
X0023916Y0020853D01*
X0023829Y0021224D01*
X0023751Y0021596D01*
X0023683Y0021971D01*
X0023623Y0022347D01*
X0023573Y0022724D01*
X0023532Y0023102D01*
X0023499Y0023481D01*
X0023476Y0023861D01*
X0023463Y0024241D01*
X0023458Y0024622D01*
X0249442Y0168323D02*
X0249444Y0168420D01*
X0249450Y0168517D01*
X0249460Y0168613D01*
X0249474Y0168709D01*
X0249492Y0168805D01*
X0249513Y0168899D01*
X0249539Y0168993D01*
X0249568Y0169085D01*
X0249602Y0169176D01*
X0249638Y0169266D01*
X0249679Y0169354D01*
X0249723Y0169440D01*
X0249771Y0169525D01*
X0249822Y0169607D01*
X0249876Y0169688D01*
X0249934Y0169766D01*
X0249995Y0169841D01*
X0250058Y0169914D01*
X0250125Y0169985D01*
X0250195Y0170052D01*
X0250267Y0170117D01*
X0250342Y0170178D01*
X0250420Y0170237D01*
X0250499Y0170292D01*
X0250581Y0170344D01*
X0250665Y0170392D01*
X0250751Y0170437D01*
X0250839Y0170479D01*
X0250928Y0170517D01*
X0251019Y0170551D01*
X0251111Y0170581D01*
X0251204Y0170608D01*
X0251299Y0170630D01*
X0251394Y0170649D01*
X0251490Y0170664D01*
X0251586Y0170675D01*
X0251683Y0170682D01*
X0251780Y0170685D01*
X0251877Y0170684D01*
X0251974Y0170679D01*
X0252070Y0170670D01*
X0252166Y0170657D01*
X0252262Y0170640D01*
X0252357Y0170619D01*
X0252450Y0170595D01*
X0252543Y0170566D01*
X0252635Y0170534D01*
X0252725Y0170498D01*
X0252813Y0170459D01*
X0252900Y0170415D01*
X0252985Y0170369D01*
X0253068Y0170318D01*
X0253149Y0170265D01*
X0253227Y0170208D01*
X0253304Y0170148D01*
X0253377Y0170085D01*
X0253448Y0170019D01*
X0253516Y0169950D01*
X0253582Y0169878D01*
X0253644Y0169804D01*
X0253703Y0169727D01*
X0253759Y0169648D01*
X0253812Y0169566D01*
X0253862Y0169483D01*
X0253907Y0169397D01*
X0253950Y0169310D01*
X0253989Y0169221D01*
X0254024Y0169131D01*
X0254055Y0169039D01*
X0254082Y0168946D01*
X0254106Y0168852D01*
X0254126Y0168757D01*
X0254142Y0168661D01*
X0254154Y0168565D01*
X0254162Y0168468D01*
X0254166Y0168371D01*
X0254166Y0168275D01*
X0254162Y0168178D01*
X0254154Y0168081D01*
X0254142Y0167985D01*
X0254126Y0167889D01*
X0254106Y0167794D01*
X0254082Y0167700D01*
X0254055Y0167607D01*
X0254024Y0167515D01*
X0253989Y0167425D01*
X0253950Y0167336D01*
X0253907Y0167249D01*
X0253862Y0167163D01*
X0253812Y0167080D01*
X0253759Y0166998D01*
X0253703Y0166919D01*
X0253644Y0166842D01*
X0253582Y0166768D01*
X0253516Y0166696D01*
X0253448Y0166627D01*
X0253377Y0166561D01*
X0253304Y0166498D01*
X0253227Y0166438D01*
X0253149Y0166381D01*
X0253068Y0166328D01*
X0252985Y0166277D01*
X0252900Y0166231D01*
X0252813Y0166187D01*
X0252725Y0166148D01*
X0252635Y0166112D01*
X0252543Y0166080D01*
X0252450Y0166051D01*
X0252357Y0166027D01*
X0252262Y0166006D01*
X0252166Y0165989D01*
X0252070Y0165976D01*
X0251974Y0165967D01*
X0251877Y0165962D01*
X0251780Y0165961D01*
X0251683Y0165964D01*
X0251586Y0165971D01*
X0251490Y0165982D01*
X0251394Y0165997D01*
X0251299Y0166016D01*
X0251204Y0166038D01*
X0251111Y0166065D01*
X0251019Y0166095D01*
X0250928Y0166129D01*
X0250839Y0166167D01*
X0250751Y0166209D01*
X0250665Y0166254D01*
X0250581Y0166302D01*
X0250499Y0166354D01*
X0250420Y0166409D01*
X0250342Y0166468D01*
X0250267Y0166529D01*
X0250195Y0166594D01*
X0250125Y0166661D01*
X0250058Y0166732D01*
X0249995Y0166805D01*
X0249934Y0166880D01*
X0249876Y0166958D01*
X0249822Y0167039D01*
X0249771Y0167121D01*
X0249723Y0167206D01*
X0249679Y0167292D01*
X0249638Y0167380D01*
X0249602Y0167470D01*
X0249568Y0167561D01*
X0249539Y0167653D01*
X0249513Y0167747D01*
X0249492Y0167841D01*
X0249474Y0167937D01*
X0249460Y0168033D01*
X0249450Y0168129D01*
X0249444Y0168226D01*
X0249442Y0168323D01*
X0229757Y0188008D02*
X0229759Y0188105D01*
X0229765Y0188202D01*
X0229775Y0188298D01*
X0229789Y0188394D01*
X0229807Y0188490D01*
X0229828Y0188584D01*
X0229854Y0188678D01*
X0229883Y0188770D01*
X0229917Y0188861D01*
X0229953Y0188951D01*
X0229994Y0189039D01*
X0230038Y0189125D01*
X0230086Y0189210D01*
X0230137Y0189292D01*
X0230191Y0189373D01*
X0230249Y0189451D01*
X0230310Y0189526D01*
X0230373Y0189599D01*
X0230440Y0189670D01*
X0230510Y0189737D01*
X0230582Y0189802D01*
X0230657Y0189863D01*
X0230735Y0189922D01*
X0230814Y0189977D01*
X0230896Y0190029D01*
X0230980Y0190077D01*
X0231066Y0190122D01*
X0231154Y0190164D01*
X0231243Y0190202D01*
X0231334Y0190236D01*
X0231426Y0190266D01*
X0231519Y0190293D01*
X0231614Y0190315D01*
X0231709Y0190334D01*
X0231805Y0190349D01*
X0231901Y0190360D01*
X0231998Y0190367D01*
X0232095Y0190370D01*
X0232192Y0190369D01*
X0232289Y0190364D01*
X0232385Y0190355D01*
X0232481Y0190342D01*
X0232577Y0190325D01*
X0232672Y0190304D01*
X0232765Y0190280D01*
X0232858Y0190251D01*
X0232950Y0190219D01*
X0233040Y0190183D01*
X0233128Y0190144D01*
X0233215Y0190100D01*
X0233300Y0190054D01*
X0233383Y0190003D01*
X0233464Y0189950D01*
X0233542Y0189893D01*
X0233619Y0189833D01*
X0233692Y0189770D01*
X0233763Y0189704D01*
X0233831Y0189635D01*
X0233897Y0189563D01*
X0233959Y0189489D01*
X0234018Y0189412D01*
X0234074Y0189333D01*
X0234127Y0189251D01*
X0234177Y0189168D01*
X0234222Y0189082D01*
X0234265Y0188995D01*
X0234304Y0188906D01*
X0234339Y0188816D01*
X0234370Y0188724D01*
X0234397Y0188631D01*
X0234421Y0188537D01*
X0234441Y0188442D01*
X0234457Y0188346D01*
X0234469Y0188250D01*
X0234477Y0188153D01*
X0234481Y0188056D01*
X0234481Y0187960D01*
X0234477Y0187863D01*
X0234469Y0187766D01*
X0234457Y0187670D01*
X0234441Y0187574D01*
X0234421Y0187479D01*
X0234397Y0187385D01*
X0234370Y0187292D01*
X0234339Y0187200D01*
X0234304Y0187110D01*
X0234265Y0187021D01*
X0234222Y0186934D01*
X0234177Y0186848D01*
X0234127Y0186765D01*
X0234074Y0186683D01*
X0234018Y0186604D01*
X0233959Y0186527D01*
X0233897Y0186453D01*
X0233831Y0186381D01*
X0233763Y0186312D01*
X0233692Y0186246D01*
X0233619Y0186183D01*
X0233542Y0186123D01*
X0233464Y0186066D01*
X0233383Y0186013D01*
X0233300Y0185962D01*
X0233215Y0185916D01*
X0233128Y0185872D01*
X0233040Y0185833D01*
X0232950Y0185797D01*
X0232858Y0185765D01*
X0232765Y0185736D01*
X0232672Y0185712D01*
X0232577Y0185691D01*
X0232481Y0185674D01*
X0232385Y0185661D01*
X0232289Y0185652D01*
X0232192Y0185647D01*
X0232095Y0185646D01*
X0231998Y0185649D01*
X0231901Y0185656D01*
X0231805Y0185667D01*
X0231709Y0185682D01*
X0231614Y0185701D01*
X0231519Y0185723D01*
X0231426Y0185750D01*
X0231334Y0185780D01*
X0231243Y0185814D01*
X0231154Y0185852D01*
X0231066Y0185894D01*
X0230980Y0185939D01*
X0230896Y0185987D01*
X0230814Y0186039D01*
X0230735Y0186094D01*
X0230657Y0186153D01*
X0230582Y0186214D01*
X0230510Y0186279D01*
X0230440Y0186346D01*
X0230373Y0186417D01*
X0230310Y0186490D01*
X0230249Y0186565D01*
X0230191Y0186643D01*
X0230137Y0186724D01*
X0230086Y0186806D01*
X0230038Y0186891D01*
X0229994Y0186977D01*
X0229953Y0187065D01*
X0229917Y0187155D01*
X0229883Y0187246D01*
X0229854Y0187338D01*
X0229828Y0187432D01*
X0229807Y0187526D01*
X0229789Y0187622D01*
X0229775Y0187718D01*
X0229765Y0187814D01*
X0229759Y0187911D01*
X0229757Y0188008D01*
X0229757Y0197850D02*
X0229759Y0197947D01*
X0229765Y0198044D01*
X0229775Y0198140D01*
X0229789Y0198236D01*
X0229807Y0198332D01*
X0229828Y0198426D01*
X0229854Y0198520D01*
X0229883Y0198612D01*
X0229917Y0198703D01*
X0229953Y0198793D01*
X0229994Y0198881D01*
X0230038Y0198967D01*
X0230086Y0199052D01*
X0230137Y0199134D01*
X0230191Y0199215D01*
X0230249Y0199293D01*
X0230310Y0199368D01*
X0230373Y0199441D01*
X0230440Y0199512D01*
X0230510Y0199579D01*
X0230582Y0199644D01*
X0230657Y0199705D01*
X0230735Y0199764D01*
X0230814Y0199819D01*
X0230896Y0199871D01*
X0230980Y0199919D01*
X0231066Y0199964D01*
X0231154Y0200006D01*
X0231243Y0200044D01*
X0231334Y0200078D01*
X0231426Y0200108D01*
X0231519Y0200135D01*
X0231614Y0200157D01*
X0231709Y0200176D01*
X0231805Y0200191D01*
X0231901Y0200202D01*
X0231998Y0200209D01*
X0232095Y0200212D01*
X0232192Y0200211D01*
X0232289Y0200206D01*
X0232385Y0200197D01*
X0232481Y0200184D01*
X0232577Y0200167D01*
X0232672Y0200146D01*
X0232765Y0200122D01*
X0232858Y0200093D01*
X0232950Y0200061D01*
X0233040Y0200025D01*
X0233128Y0199986D01*
X0233215Y0199942D01*
X0233300Y0199896D01*
X0233383Y0199845D01*
X0233464Y0199792D01*
X0233542Y0199735D01*
X0233619Y0199675D01*
X0233692Y0199612D01*
X0233763Y0199546D01*
X0233831Y0199477D01*
X0233897Y0199405D01*
X0233959Y0199331D01*
X0234018Y0199254D01*
X0234074Y0199175D01*
X0234127Y0199093D01*
X0234177Y0199010D01*
X0234222Y0198924D01*
X0234265Y0198837D01*
X0234304Y0198748D01*
X0234339Y0198658D01*
X0234370Y0198566D01*
X0234397Y0198473D01*
X0234421Y0198379D01*
X0234441Y0198284D01*
X0234457Y0198188D01*
X0234469Y0198092D01*
X0234477Y0197995D01*
X0234481Y0197898D01*
X0234481Y0197802D01*
X0234477Y0197705D01*
X0234469Y0197608D01*
X0234457Y0197512D01*
X0234441Y0197416D01*
X0234421Y0197321D01*
X0234397Y0197227D01*
X0234370Y0197134D01*
X0234339Y0197042D01*
X0234304Y0196952D01*
X0234265Y0196863D01*
X0234222Y0196776D01*
X0234177Y0196690D01*
X0234127Y0196607D01*
X0234074Y0196525D01*
X0234018Y0196446D01*
X0233959Y0196369D01*
X0233897Y0196295D01*
X0233831Y0196223D01*
X0233763Y0196154D01*
X0233692Y0196088D01*
X0233619Y0196025D01*
X0233542Y0195965D01*
X0233464Y0195908D01*
X0233383Y0195855D01*
X0233300Y0195804D01*
X0233215Y0195758D01*
X0233128Y0195714D01*
X0233040Y0195675D01*
X0232950Y0195639D01*
X0232858Y0195607D01*
X0232765Y0195578D01*
X0232672Y0195554D01*
X0232577Y0195533D01*
X0232481Y0195516D01*
X0232385Y0195503D01*
X0232289Y0195494D01*
X0232192Y0195489D01*
X0232095Y0195488D01*
X0231998Y0195491D01*
X0231901Y0195498D01*
X0231805Y0195509D01*
X0231709Y0195524D01*
X0231614Y0195543D01*
X0231519Y0195565D01*
X0231426Y0195592D01*
X0231334Y0195622D01*
X0231243Y0195656D01*
X0231154Y0195694D01*
X0231066Y0195736D01*
X0230980Y0195781D01*
X0230896Y0195829D01*
X0230814Y0195881D01*
X0230735Y0195936D01*
X0230657Y0195995D01*
X0230582Y0196056D01*
X0230510Y0196121D01*
X0230440Y0196188D01*
X0230373Y0196259D01*
X0230310Y0196332D01*
X0230249Y0196407D01*
X0230191Y0196485D01*
X0230137Y0196566D01*
X0230086Y0196648D01*
X0230038Y0196733D01*
X0229994Y0196819D01*
X0229953Y0196907D01*
X0229917Y0196997D01*
X0229883Y0197088D01*
X0229854Y0197180D01*
X0229828Y0197274D01*
X0229807Y0197368D01*
X0229789Y0197464D01*
X0229775Y0197560D01*
X0229765Y0197656D01*
X0229759Y0197753D01*
X0229757Y0197850D01*
X0269127Y0197850D02*
X0269129Y0197947D01*
X0269135Y0198044D01*
X0269145Y0198140D01*
X0269159Y0198236D01*
X0269177Y0198332D01*
X0269198Y0198426D01*
X0269224Y0198520D01*
X0269253Y0198612D01*
X0269287Y0198703D01*
X0269323Y0198793D01*
X0269364Y0198881D01*
X0269408Y0198967D01*
X0269456Y0199052D01*
X0269507Y0199134D01*
X0269561Y0199215D01*
X0269619Y0199293D01*
X0269680Y0199368D01*
X0269743Y0199441D01*
X0269810Y0199512D01*
X0269880Y0199579D01*
X0269952Y0199644D01*
X0270027Y0199705D01*
X0270105Y0199764D01*
X0270184Y0199819D01*
X0270266Y0199871D01*
X0270350Y0199919D01*
X0270436Y0199964D01*
X0270524Y0200006D01*
X0270613Y0200044D01*
X0270704Y0200078D01*
X0270796Y0200108D01*
X0270889Y0200135D01*
X0270984Y0200157D01*
X0271079Y0200176D01*
X0271175Y0200191D01*
X0271271Y0200202D01*
X0271368Y0200209D01*
X0271465Y0200212D01*
X0271562Y0200211D01*
X0271659Y0200206D01*
X0271755Y0200197D01*
X0271851Y0200184D01*
X0271947Y0200167D01*
X0272042Y0200146D01*
X0272135Y0200122D01*
X0272228Y0200093D01*
X0272320Y0200061D01*
X0272410Y0200025D01*
X0272498Y0199986D01*
X0272585Y0199942D01*
X0272670Y0199896D01*
X0272753Y0199845D01*
X0272834Y0199792D01*
X0272912Y0199735D01*
X0272989Y0199675D01*
X0273062Y0199612D01*
X0273133Y0199546D01*
X0273201Y0199477D01*
X0273267Y0199405D01*
X0273329Y0199331D01*
X0273388Y0199254D01*
X0273444Y0199175D01*
X0273497Y0199093D01*
X0273547Y0199010D01*
X0273592Y0198924D01*
X0273635Y0198837D01*
X0273674Y0198748D01*
X0273709Y0198658D01*
X0273740Y0198566D01*
X0273767Y0198473D01*
X0273791Y0198379D01*
X0273811Y0198284D01*
X0273827Y0198188D01*
X0273839Y0198092D01*
X0273847Y0197995D01*
X0273851Y0197898D01*
X0273851Y0197802D01*
X0273847Y0197705D01*
X0273839Y0197608D01*
X0273827Y0197512D01*
X0273811Y0197416D01*
X0273791Y0197321D01*
X0273767Y0197227D01*
X0273740Y0197134D01*
X0273709Y0197042D01*
X0273674Y0196952D01*
X0273635Y0196863D01*
X0273592Y0196776D01*
X0273547Y0196690D01*
X0273497Y0196607D01*
X0273444Y0196525D01*
X0273388Y0196446D01*
X0273329Y0196369D01*
X0273267Y0196295D01*
X0273201Y0196223D01*
X0273133Y0196154D01*
X0273062Y0196088D01*
X0272989Y0196025D01*
X0272912Y0195965D01*
X0272834Y0195908D01*
X0272753Y0195855D01*
X0272670Y0195804D01*
X0272585Y0195758D01*
X0272498Y0195714D01*
X0272410Y0195675D01*
X0272320Y0195639D01*
X0272228Y0195607D01*
X0272135Y0195578D01*
X0272042Y0195554D01*
X0271947Y0195533D01*
X0271851Y0195516D01*
X0271755Y0195503D01*
X0271659Y0195494D01*
X0271562Y0195489D01*
X0271465Y0195488D01*
X0271368Y0195491D01*
X0271271Y0195498D01*
X0271175Y0195509D01*
X0271079Y0195524D01*
X0270984Y0195543D01*
X0270889Y0195565D01*
X0270796Y0195592D01*
X0270704Y0195622D01*
X0270613Y0195656D01*
X0270524Y0195694D01*
X0270436Y0195736D01*
X0270350Y0195781D01*
X0270266Y0195829D01*
X0270184Y0195881D01*
X0270105Y0195936D01*
X0270027Y0195995D01*
X0269952Y0196056D01*
X0269880Y0196121D01*
X0269810Y0196188D01*
X0269743Y0196259D01*
X0269680Y0196332D01*
X0269619Y0196407D01*
X0269561Y0196485D01*
X0269507Y0196566D01*
X0269456Y0196648D01*
X0269408Y0196733D01*
X0269364Y0196819D01*
X0269323Y0196907D01*
X0269287Y0196997D01*
X0269253Y0197088D01*
X0269224Y0197180D01*
X0269198Y0197274D01*
X0269177Y0197368D01*
X0269159Y0197464D01*
X0269145Y0197560D01*
X0269135Y0197656D01*
X0269129Y0197753D01*
X0269127Y0197850D01*
X0269127Y0188008D02*
X0269129Y0188105D01*
X0269135Y0188202D01*
X0269145Y0188298D01*
X0269159Y0188394D01*
X0269177Y0188490D01*
X0269198Y0188584D01*
X0269224Y0188678D01*
X0269253Y0188770D01*
X0269287Y0188861D01*
X0269323Y0188951D01*
X0269364Y0189039D01*
X0269408Y0189125D01*
X0269456Y0189210D01*
X0269507Y0189292D01*
X0269561Y0189373D01*
X0269619Y0189451D01*
X0269680Y0189526D01*
X0269743Y0189599D01*
X0269810Y0189670D01*
X0269880Y0189737D01*
X0269952Y0189802D01*
X0270027Y0189863D01*
X0270105Y0189922D01*
X0270184Y0189977D01*
X0270266Y0190029D01*
X0270350Y0190077D01*
X0270436Y0190122D01*
X0270524Y0190164D01*
X0270613Y0190202D01*
X0270704Y0190236D01*
X0270796Y0190266D01*
X0270889Y0190293D01*
X0270984Y0190315D01*
X0271079Y0190334D01*
X0271175Y0190349D01*
X0271271Y0190360D01*
X0271368Y0190367D01*
X0271465Y0190370D01*
X0271562Y0190369D01*
X0271659Y0190364D01*
X0271755Y0190355D01*
X0271851Y0190342D01*
X0271947Y0190325D01*
X0272042Y0190304D01*
X0272135Y0190280D01*
X0272228Y0190251D01*
X0272320Y0190219D01*
X0272410Y0190183D01*
X0272498Y0190144D01*
X0272585Y0190100D01*
X0272670Y0190054D01*
X0272753Y0190003D01*
X0272834Y0189950D01*
X0272912Y0189893D01*
X0272989Y0189833D01*
X0273062Y0189770D01*
X0273133Y0189704D01*
X0273201Y0189635D01*
X0273267Y0189563D01*
X0273329Y0189489D01*
X0273388Y0189412D01*
X0273444Y0189333D01*
X0273497Y0189251D01*
X0273547Y0189168D01*
X0273592Y0189082D01*
X0273635Y0188995D01*
X0273674Y0188906D01*
X0273709Y0188816D01*
X0273740Y0188724D01*
X0273767Y0188631D01*
X0273791Y0188537D01*
X0273811Y0188442D01*
X0273827Y0188346D01*
X0273839Y0188250D01*
X0273847Y0188153D01*
X0273851Y0188056D01*
X0273851Y0187960D01*
X0273847Y0187863D01*
X0273839Y0187766D01*
X0273827Y0187670D01*
X0273811Y0187574D01*
X0273791Y0187479D01*
X0273767Y0187385D01*
X0273740Y0187292D01*
X0273709Y0187200D01*
X0273674Y0187110D01*
X0273635Y0187021D01*
X0273592Y0186934D01*
X0273547Y0186848D01*
X0273497Y0186765D01*
X0273444Y0186683D01*
X0273388Y0186604D01*
X0273329Y0186527D01*
X0273267Y0186453D01*
X0273201Y0186381D01*
X0273133Y0186312D01*
X0273062Y0186246D01*
X0272989Y0186183D01*
X0272912Y0186123D01*
X0272834Y0186066D01*
X0272753Y0186013D01*
X0272670Y0185962D01*
X0272585Y0185916D01*
X0272498Y0185872D01*
X0272410Y0185833D01*
X0272320Y0185797D01*
X0272228Y0185765D01*
X0272135Y0185736D01*
X0272042Y0185712D01*
X0271947Y0185691D01*
X0271851Y0185674D01*
X0271755Y0185661D01*
X0271659Y0185652D01*
X0271562Y0185647D01*
X0271465Y0185646D01*
X0271368Y0185649D01*
X0271271Y0185656D01*
X0271175Y0185667D01*
X0271079Y0185682D01*
X0270984Y0185701D01*
X0270889Y0185723D01*
X0270796Y0185750D01*
X0270704Y0185780D01*
X0270613Y0185814D01*
X0270524Y0185852D01*
X0270436Y0185894D01*
X0270350Y0185939D01*
X0270266Y0185987D01*
X0270184Y0186039D01*
X0270105Y0186094D01*
X0270027Y0186153D01*
X0269952Y0186214D01*
X0269880Y0186279D01*
X0269810Y0186346D01*
X0269743Y0186417D01*
X0269680Y0186490D01*
X0269619Y0186565D01*
X0269561Y0186643D01*
X0269507Y0186724D01*
X0269456Y0186806D01*
X0269408Y0186891D01*
X0269364Y0186977D01*
X0269323Y0187065D01*
X0269287Y0187155D01*
X0269253Y0187246D01*
X0269224Y0187338D01*
X0269198Y0187432D01*
X0269177Y0187526D01*
X0269159Y0187622D01*
X0269145Y0187718D01*
X0269135Y0187814D01*
X0269129Y0187911D01*
X0269127Y0188008D01*
M02*
